<svg id="svg" version="1.1" xmlns="http://www.w3.org/2000/svg" xmlns:xlink="http://www.w3.org/1999/xlink" width="400" height="400" viewBox="0, 0, 400,400"><g id="svgg"><path id="path0" d="M71.600 87.572 C 70.610 87.720,69.224 88.147,68.520 88.521 C 67.816 88.894,66.934 89.200,66.561 89.200 C 63.779 89.200,54.600 98.311,53.753 101.914 C 53.612 102.511,53.115 103.630,52.649 104.400 L 51.800 105.800 51.675 196.600 C 51.543 292.110,51.585 295.799,52.838 297.244 C 53.257 297.727,53.600 298.517,53.600 299.000 C 53.600 299.483,53.955 300.287,54.388 300.786 C 54.822 301.286,55.291 302.079,55.431 302.548 C 55.790 303.749,63.080 310.800,63.963 310.800 C 64.364 310.800,65.131 311.145,65.667 311.567 C 66.204 311.989,67.353 312.459,68.221 312.612 C 69.090 312.765,70.250 313.185,70.800 313.545 C 72.401 314.594,328.506 314.550,329.989 313.500 C 330.533 313.115,331.329 312.800,331.757 312.800 C 334.352 312.800,341.289 307.993,343.600 304.594 C 344.150 303.785,345.005 302.748,345.500 302.289 C 345.995 301.831,346.400 301.066,346.400 300.590 C 346.400 300.114,346.738 299.418,347.150 299.045 C 347.633 298.608,347.993 297.553,348.161 296.083 C 348.304 294.827,348.678 293.080,348.993 292.200 C 349.869 289.749,349.886 111.060,349.011 108.964 C 348.687 108.188,348.303 106.619,348.159 105.477 C 348.015 104.335,347.668 103.130,347.388 102.800 C 347.108 102.470,346.582 101.570,346.218 100.800 C 344.975 98.168,344.026 96.646,343.413 96.303 C 343.076 96.115,342.800 95.771,342.800 95.541 C 342.800 95.077,340.490 92.800,340.020 92.800 C 339.857 92.800,339.398 92.440,339.000 92.000 C 338.602 91.560,338.043 91.200,337.759 91.200 C 337.474 91.200,336.756 90.750,336.162 90.200 C 335.569 89.650,334.702 89.200,334.236 89.200 C 333.770 89.200,332.671 88.795,331.794 88.300 L 330.200 87.400 201.800 87.351 C 131.180 87.324,72.590 87.423,71.600 87.572 M328.461 104.100 C 330.264 105.322,331.124 106.521,331.798 108.750 C 332.124 109.826,223.262 219.200,221.865 219.200 C 221.486 219.200,221.074 219.463,220.950 219.785 C 220.827 220.106,220.404 220.472,220.011 220.597 C 219.617 220.722,218.886 221.178,218.386 221.612 C 217.887 222.045,217.169 222.400,216.793 222.400 C 216.416 222.400,215.658 222.754,215.109 223.186 C 214.559 223.618,213.263 224.162,212.229 224.393 C 211.195 224.625,209.883 225.121,209.312 225.494 C 207.572 226.635,192.077 226.488,189.600 225.308 C 188.610 224.836,187.143 224.344,186.340 224.215 C 185.537 224.085,184.670 223.725,184.413 223.415 C 184.155 223.105,183.416 222.735,182.769 222.593 C 182.122 222.451,181.409 221.990,181.183 221.567 C 180.957 221.145,180.496 220.800,180.159 220.800 C 178.615 220.800,179.275 221.441,120.737 163.100 C 101.588 144.015,85.758 128.400,85.560 128.400 C 85.362 128.400,85.200 128.234,85.200 128.032 C 85.200 127.830,84.125 126.615,82.810 125.332 C 78.802 121.421,77.853 120.474,76.466 119.009 C 75.733 118.234,74.980 117.600,74.793 117.600 C 74.607 117.600,74.340 117.240,74.200 116.800 C 74.060 116.360,73.759 116.000,73.530 116.000 C 72.735 116.000,67.200 109.853,67.200 108.971 C 67.200 107.936,68.998 105.591,71.031 103.976 L 72.510 102.800 199.527 102.800 L 326.544 102.800 328.461 104.100 M332.320 133.280 C 332.689 133.649,332.800 149.020,332.800 200.031 C 332.800 271.120,332.897 267.666,330.919 267.037 C 329.395 266.553,264.400 201.048,264.400 199.997 C 264.400 198.865,330.097 132.800,331.223 132.800 C 331.562 132.800,332.056 133.016,332.320 133.280 M101.708 166.315 C 119.909 184.528,134.800 199.687,134.800 200.000 C 134.800 200.556,68.890 266.800,68.336 266.800 C 66.751 266.800,66.800 268.914,66.800 200.000 C 66.800 131.086,66.751 133.200,68.336 133.200 C 68.490 133.200,83.507 148.102,101.708 166.315 M157.537 222.100 C 163.244 227.765,168.043 232.400,168.201 232.400 C 168.763 232.400,172.359 234.915,172.565 235.453 C 172.680 235.754,173.106 236.000,173.510 236.000 C 173.914 236.000,174.855 236.450,175.600 237.000 C 176.345 237.550,177.256 238.000,177.624 238.000 C 177.991 238.000,178.750 238.360,179.309 238.800 C 179.869 239.240,180.750 239.600,181.269 239.600 C 181.788 239.600,182.885 239.961,183.708 240.402 C 184.530 240.843,186.495 241.387,188.075 241.611 C 189.654 241.835,191.729 242.284,192.687 242.609 C 195.059 243.414,203.979 243.393,206.200 242.577 C 207.080 242.253,209.060 241.818,210.600 241.610 C 212.140 241.402,214.113 240.865,214.985 240.416 C 215.856 239.967,216.874 239.600,217.248 239.600 C 217.850 239.600,221.186 238.132,222.800 237.157 C 223.130 236.957,223.850 236.578,224.400 236.313 C 224.950 236.048,225.909 235.419,226.531 234.916 C 227.153 234.412,227.828 234.000,228.031 234.000 C 228.234 234.000,228.715 233.726,229.100 233.391 C 229.485 233.056,230.790 231.936,232.000 230.902 C 233.210 229.869,238.165 225.103,243.011 220.312 C 248.510 214.876,252.119 211.601,252.611 211.602 C 254.089 211.605,332.140 290.121,331.796 291.258 C 331.124 293.479,330.262 294.679,328.461 295.900 L 326.544 297.200 199.527 297.200 L 72.510 297.200 71.031 296.024 C 68.975 294.391,67.200 292.061,67.200 290.995 C 67.200 290.071,79.884 276.800,80.768 276.800 C 81.006 276.800,81.200 276.627,81.200 276.415 C 81.200 276.203,92.623 264.638,106.584 250.715 C 120.546 236.792,132.201 225.169,132.484 224.886 C 132.768 224.603,135.856 221.488,139.347 217.964 C 143.671 213.599,145.928 211.596,146.427 211.678 C 146.830 211.745,151.830 216.435,157.537 222.100 " stroke="none" fill="#0d07ab" fill-rule="evenodd"></path><path id="path1" d="M0.000 200.000 L 0.000 400.000 200.000 400.000 L 400.000 400.000 400.000 200.000 L 400.000 0.000 200.000 0.000 L 0.000 0.000 0.000 200.000 M328.974 85.558 C 329.868 85.975,331.404 86.413,332.386 86.532 C 333.368 86.650,334.361 87.005,334.592 87.321 C 334.823 87.637,335.602 88.025,336.325 88.183 C 337.047 88.342,337.853 88.816,338.115 89.236 C 338.378 89.656,338.828 90.000,339.116 90.000 C 339.934 90.000,345.600 95.656,345.600 96.472 C 345.600 96.872,345.868 97.200,346.195 97.200 C 346.522 97.200,347.066 97.785,347.405 98.500 C 347.744 99.215,348.284 100.250,348.605 100.800 C 348.926 101.350,349.191 102.295,349.194 102.900 C 349.197 103.505,349.561 104.361,350.002 104.802 C 351.181 105.981,351.079 296.188,349.900 296.848 C 349.444 297.103,349.200 297.721,349.200 298.620 C 349.200 299.461,348.891 300.309,348.410 300.790 C 347.976 301.224,347.503 302.047,347.360 302.618 C 347.216 303.189,346.762 303.867,346.350 304.124 C 345.937 304.382,345.600 304.787,345.600 305.024 C 345.600 305.261,345.150 305.847,344.600 306.325 C 344.050 306.803,343.600 307.364,343.600 307.570 C 343.600 307.777,343.259 308.054,342.843 308.186 C 342.427 308.318,341.994 308.781,341.881 309.213 C 341.759 309.680,341.334 310.000,340.837 310.000 C 340.354 310.000,340.000 310.258,340.000 310.610 C 340.000 310.945,339.529 311.399,338.953 311.618 C 338.377 311.837,337.453 312.372,336.899 312.808 C 336.345 313.244,335.526 313.600,335.078 313.600 C 334.630 313.600,333.917 313.915,333.495 314.300 C 331.479 316.138,332.545 316.123,200.600 316.150 C 69.024 316.178,68.974 316.177,67.257 314.390 C 66.896 314.014,65.925 313.584,65.100 313.435 C 64.275 313.286,63.600 312.994,63.600 312.787 C 63.600 312.580,63.015 312.135,62.300 311.798 C 60.276 310.844,58.450 309.469,58.186 308.700 C 58.054 308.315,57.683 308.000,57.360 308.000 C 57.038 308.000,56.659 307.685,56.517 307.300 C 56.376 306.915,55.841 306.204,55.330 305.719 C 54.818 305.235,54.400 304.489,54.400 304.062 C 54.400 303.635,54.168 303.197,53.885 303.088 C 53.077 302.778,50.800 298.122,50.800 296.780 C 50.800 296.116,50.485 295.091,50.100 294.504 C 49.012 292.843,49.012 108.113,50.100 106.910 C 50.504 106.464,50.800 105.504,50.800 104.642 C 50.800 103.122,51.296 101.847,52.263 100.880 C 52.558 100.584,52.800 99.996,52.800 99.571 C 52.800 99.147,53.142 98.458,53.561 98.039 C 53.979 97.621,54.441 96.901,54.587 96.439 C 54.734 95.978,55.116 95.600,55.437 95.600 C 55.757 95.600,56.191 95.150,56.400 94.600 C 56.609 94.050,57.055 93.600,57.390 93.600 C 57.726 93.600,58.000 93.326,58.000 92.991 C 58.000 92.657,58.450 92.178,59.000 91.927 C 59.550 91.677,60.000 91.243,60.000 90.963 C 60.000 90.683,60.405 90.331,60.900 90.181 C 61.395 90.031,62.160 89.582,62.600 89.184 C 63.040 88.785,63.895 88.336,64.500 88.186 C 65.105 88.036,65.600 87.782,65.600 87.621 C 65.600 87.122,67.573 86.400,68.934 86.400 C 69.647 86.400,70.937 86.040,71.800 85.600 C 74.206 84.373,326.344 84.332,328.974 85.558 M73.656 104.813 C 73.136 105.246,72.501 105.600,72.245 105.600 C 71.988 105.600,71.423 106.005,70.989 106.500 C 69.979 107.652,69.119 109.600,69.619 109.600 C 69.829 109.600,70.000 109.960,70.000 110.400 C 70.000 110.840,70.207 111.200,70.460 111.200 C 71.028 111.200,73.600 113.804,73.600 114.380 C 73.600 114.611,73.838 114.800,74.128 114.800 C 74.418 114.800,75.047 115.250,75.525 115.800 C 76.003 116.350,76.576 116.800,76.797 116.800 C 77.019 116.800,77.200 117.160,77.200 117.600 C 77.200 118.124,77.467 118.400,77.973 118.400 C 78.398 118.400,78.857 118.751,78.994 119.180 C 79.130 119.608,79.572 120.064,79.977 120.193 C 80.382 120.321,80.806 120.781,80.919 121.213 C 81.033 121.646,81.400 122.000,81.736 122.000 C 82.071 122.000,82.460 122.360,82.600 122.800 C 82.740 123.240,83.116 123.600,83.437 123.600 C 83.757 123.600,84.191 124.050,84.400 124.600 C 84.609 125.150,85.055 125.600,85.390 125.600 C 85.726 125.600,86.000 125.887,86.000 126.237 C 86.000 126.588,86.354 126.967,86.787 127.081 C 87.219 127.194,87.679 127.618,87.807 128.023 C 87.936 128.428,88.392 128.870,88.820 129.006 C 89.249 129.143,89.600 129.602,89.600 130.027 C 89.600 130.524,89.876 130.800,90.373 130.800 C 90.798 130.800,91.257 131.151,91.394 131.580 C 91.530 132.008,91.992 132.470,92.420 132.606 C 92.849 132.743,93.200 133.202,93.200 133.627 C 93.200 134.124,93.476 134.400,93.973 134.400 C 94.398 134.400,94.860 134.760,95.000 135.200 C 95.140 135.640,95.529 136.000,95.864 136.000 C 96.200 136.000,96.567 136.354,96.681 136.787 C 96.794 137.219,97.218 137.679,97.623 137.807 C 98.028 137.936,98.464 138.372,98.593 138.777 C 98.721 139.182,99.181 139.606,99.613 139.719 C 100.046 139.833,100.400 140.212,100.400 140.563 C 100.400 140.913,100.545 141.200,100.722 141.200 C 101.234 141.200,104.000 143.861,104.000 144.354 C 104.000 144.599,104.160 144.800,104.356 144.800 C 104.692 144.800,118.757 158.645,158.401 198.000 C 176.973 216.436,178.597 218.000,179.172 218.000 C 179.383 218.000,179.790 218.334,180.077 218.743 C 180.365 219.151,181.050 219.622,181.600 219.789 C 182.150 219.955,182.960 220.409,183.400 220.797 C 183.840 221.184,184.858 221.618,185.661 221.761 C 186.465 221.905,187.214 222.260,187.326 222.550 C 187.447 222.867,188.533 223.184,190.037 223.341 C 191.416 223.485,193.007 223.906,193.572 224.276 C 195.273 225.390,202.526 225.526,204.817 224.487 C 205.798 224.042,207.680 223.545,209.000 223.384 C 210.335 223.220,211.823 222.759,212.354 222.345 C 212.879 221.935,213.734 221.600,214.254 221.600 C 214.774 221.600,215.560 221.240,216.000 220.800 C 216.440 220.360,217.056 220.000,217.369 220.000 C 217.682 220.000,218.473 219.550,219.127 219.000 C 219.781 218.450,220.584 218.000,220.911 218.000 C 221.239 218.000,221.601 217.640,221.716 217.200 C 221.831 216.760,222.200 216.400,222.536 216.400 C 222.871 216.400,223.257 216.049,223.394 215.620 C 223.530 215.192,223.972 214.736,224.377 214.607 C 224.782 214.479,225.206 214.019,225.319 213.587 C 225.433 213.154,225.800 212.800,226.136 212.800 C 226.471 212.800,226.857 212.449,226.994 212.020 C 227.130 211.592,227.572 211.136,227.977 211.007 C 228.382 210.879,228.806 210.419,228.919 209.987 C 229.033 209.554,229.400 209.200,229.736 209.200 C 230.071 209.200,230.457 208.849,230.594 208.420 C 230.730 207.992,231.172 207.536,231.577 207.407 C 231.982 207.279,232.406 206.819,232.519 206.387 C 232.633 205.954,233.000 205.600,233.336 205.600 C 233.671 205.600,234.060 205.240,234.200 204.800 C 234.340 204.360,234.729 204.000,235.064 204.000 C 235.400 204.000,235.767 203.646,235.881 203.213 C 235.994 202.781,236.408 202.325,236.800 202.200 C 237.192 202.075,237.606 201.619,237.719 201.187 C 237.833 200.754,238.200 200.400,238.536 200.400 C 238.871 200.400,239.257 200.049,239.394 199.620 C 239.530 199.192,239.972 198.736,240.377 198.607 C 240.782 198.479,241.206 198.019,241.319 197.587 C 241.433 197.154,241.800 196.800,242.136 196.800 C 242.471 196.800,242.857 196.449,242.994 196.020 C 243.130 195.592,243.572 195.136,243.977 195.007 C 244.382 194.879,244.806 194.419,244.919 193.987 C 245.033 193.554,245.400 193.200,245.736 193.200 C 246.071 193.200,246.457 192.849,246.594 192.420 C 246.730 191.992,247.172 191.536,247.577 191.407 C 247.982 191.279,248.406 190.819,248.519 190.387 C 248.633 189.954,249.012 189.600,249.363 189.600 C 249.713 189.600,250.000 189.326,250.000 188.990 C 250.000 188.655,250.425 188.218,250.945 188.021 C 251.465 187.823,251.988 187.288,252.108 186.831 C 252.227 186.374,252.591 186.000,252.916 186.000 C 253.241 186.000,253.601 185.640,253.716 185.200 C 253.831 184.760,254.200 184.400,254.536 184.400 C 254.871 184.400,255.257 184.049,255.394 183.620 C 255.530 183.192,255.972 182.736,256.377 182.607 C 256.782 182.479,257.206 182.019,257.319 181.587 C 257.433 181.154,257.800 180.800,258.136 180.800 C 258.471 180.800,258.857 180.449,258.994 180.020 C 259.130 179.592,259.572 179.136,259.977 179.007 C 260.382 178.879,260.806 178.419,260.919 177.987 C 261.033 177.554,261.400 177.200,261.736 177.200 C 262.071 177.200,262.457 176.849,262.594 176.420 C 262.730 175.992,263.172 175.536,263.577 175.407 C 263.982 175.279,264.406 174.819,264.519 174.387 C 264.633 173.954,265.000 173.600,265.336 173.600 C 265.671 173.600,266.060 173.240,266.200 172.800 C 266.340 172.360,266.729 172.000,267.064 172.000 C 267.400 172.000,267.767 171.646,267.881 171.213 C 267.994 170.781,268.408 170.325,268.800 170.200 C 269.192 170.075,269.606 169.619,269.719 169.187 C 269.833 168.754,270.200 168.400,270.536 168.400 C 270.871 168.400,271.257 168.049,271.394 167.620 C 271.530 167.192,271.972 166.736,272.377 166.607 C 272.782 166.479,273.206 166.019,273.319 165.587 C 273.433 165.154,273.800 164.800,274.136 164.800 C 274.471 164.800,274.857 164.449,274.994 164.020 C 275.130 163.592,275.572 163.136,275.977 163.007 C 276.382 162.879,276.806 162.419,276.919 161.987 C 277.033 161.554,277.400 161.200,277.736 161.200 C 278.071 161.200,278.457 160.849,278.594 160.420 C 278.730 159.992,279.192 159.530,279.620 159.394 C 280.049 159.257,280.400 158.871,280.400 158.536 C 280.400 158.200,280.760 157.831,281.200 157.716 C 281.640 157.601,282.000 157.241,282.000 156.916 C 282.000 156.591,282.374 156.227,282.831 156.108 C 283.288 155.988,283.823 155.465,284.021 154.945 C 284.218 154.425,284.655 154.000,284.990 154.000 C 285.326 154.000,285.600 153.713,285.600 153.363 C 285.600 153.012,285.954 152.633,286.387 152.519 C 286.819 152.406,287.279 151.982,287.407 151.577 C 287.536 151.172,287.992 150.730,288.420 150.594 C 288.849 150.457,289.200 150.071,289.200 149.736 C 289.200 149.400,289.554 149.033,289.987 148.919 C 290.419 148.806,290.879 148.382,291.007 147.977 C 291.136 147.572,291.592 147.130,292.020 146.994 C 292.449 146.857,292.800 146.471,292.800 146.136 C 292.800 145.800,293.154 145.433,293.587 145.319 C 294.019 145.206,294.479 144.782,294.607 144.377 C 294.736 143.972,295.192 143.530,295.620 143.394 C 296.049 143.257,296.400 142.871,296.400 142.536 C 296.400 142.200,296.754 141.833,297.187 141.719 C 297.619 141.606,298.075 141.192,298.200 140.800 C 298.325 140.408,298.781 139.994,299.213 139.881 C 299.646 139.767,300.000 139.400,300.000 139.064 C 300.000 138.729,300.360 138.340,300.800 138.200 C 301.240 138.060,301.600 137.671,301.600 137.336 C 301.600 137.000,301.954 136.633,302.387 136.519 C 302.819 136.406,303.279 135.982,303.407 135.577 C 303.536 135.172,303.992 134.730,304.420 134.594 C 304.849 134.457,305.200 134.071,305.200 133.736 C 305.200 133.400,305.554 133.033,305.987 132.919 C 306.419 132.806,306.879 132.382,307.007 131.977 C 307.136 131.572,307.592 131.130,308.020 130.994 C 308.449 130.857,308.800 130.471,308.800 130.136 C 308.800 129.800,309.154 129.433,309.587 129.319 C 310.019 129.206,310.479 128.782,310.607 128.377 C 310.736 127.972,311.192 127.530,311.620 127.394 C 312.049 127.257,312.400 126.871,312.400 126.536 C 312.400 126.200,312.754 125.833,313.187 125.719 C 313.619 125.606,314.082 125.173,314.214 124.757 C 314.346 124.341,314.716 124.000,315.037 124.000 C 315.357 124.000,315.791 123.550,316.000 123.000 C 316.209 122.450,316.655 122.000,316.990 122.000 C 317.326 122.000,317.600 121.713,317.600 121.363 C 317.600 121.012,317.954 120.633,318.387 120.519 C 318.819 120.406,319.279 119.982,319.407 119.577 C 319.536 119.172,319.992 118.730,320.420 118.594 C 320.849 118.457,321.200 118.071,321.200 117.736 C 321.200 117.400,321.554 117.033,321.987 116.919 C 322.419 116.806,322.879 116.382,323.007 115.977 C 323.136 115.572,323.592 115.130,324.020 114.994 C 324.449 114.857,324.800 114.471,324.800 114.136 C 324.800 113.800,325.154 113.433,325.587 113.319 C 326.019 113.206,326.479 112.782,326.607 112.377 C 326.736 111.972,327.192 111.530,327.620 111.394 C 328.049 111.257,328.400 110.871,328.400 110.536 C 328.400 110.200,328.760 109.831,329.200 109.716 C 330.315 109.424,330.315 107.376,329.200 107.084 C 328.760 106.969,328.400 106.608,328.400 106.282 C 328.400 105.919,327.848 105.585,326.979 105.422 C 326.197 105.276,325.458 104.896,325.336 104.578 C 324.931 103.521,74.926 103.755,73.656 104.813 M329.475 136.434 C 329.356 136.888,328.903 137.353,328.467 137.467 C 328.031 137.581,327.584 138.017,327.474 138.437 C 327.365 138.857,326.988 139.200,326.637 139.200 C 326.287 139.200,326.000 139.407,326.000 139.660 C 326.000 140.228,323.396 142.800,322.820 142.800 C 322.589 142.800,322.400 142.986,322.400 143.213 C 322.400 143.751,319.751 146.400,319.213 146.400 C 318.986 146.400,318.800 146.589,318.800 146.820 C 318.800 147.369,316.240 150.000,315.706 150.000 C 315.479 150.000,315.199 150.360,315.084 150.800 C 314.969 151.240,314.609 151.600,314.284 151.600 C 313.959 151.600,313.596 151.973,313.476 152.430 C 313.357 152.886,312.903 153.353,312.467 153.467 C 312.031 153.581,311.584 154.017,311.474 154.437 C 311.365 154.857,310.988 155.200,310.637 155.200 C 310.287 155.200,310.000 155.407,310.000 155.660 C 310.000 156.228,307.396 158.800,306.820 158.800 C 306.589 158.800,306.400 158.986,306.400 159.213 C 306.400 159.751,303.751 162.400,303.213 162.400 C 302.986 162.400,302.800 162.589,302.800 162.820 C 302.800 163.369,300.240 166.000,299.706 166.000 C 299.479 166.000,299.199 166.360,299.084 166.800 C 298.969 167.240,298.609 167.600,298.284 167.600 C 297.959 167.600,297.596 167.973,297.476 168.430 C 297.357 168.886,296.903 169.353,296.467 169.467 C 296.031 169.581,295.584 170.017,295.474 170.437 C 295.365 170.857,294.988 171.200,294.637 171.200 C 294.287 171.200,294.000 171.407,294.000 171.660 C 294.000 172.228,291.396 174.800,290.820 174.800 C 290.589 174.800,290.400 174.986,290.400 175.213 C 290.400 175.751,287.751 178.400,287.213 178.400 C 286.986 178.400,286.800 178.589,286.800 178.820 C 286.800 179.369,284.240 182.000,283.706 182.000 C 283.479 182.000,283.199 182.360,283.084 182.800 C 282.969 183.240,282.609 183.600,282.284 183.600 C 281.959 183.600,281.596 183.973,281.476 184.430 C 281.357 184.886,280.903 185.353,280.467 185.467 C 280.031 185.581,279.584 186.017,279.474 186.437 C 279.365 186.857,278.988 187.200,278.637 187.200 C 278.287 187.200,278.000 187.407,278.000 187.660 C 278.000 188.228,275.396 190.800,274.820 190.800 C 274.589 190.800,274.400 190.986,274.400 191.213 C 274.400 191.751,271.751 194.400,271.213 194.400 C 270.986 194.400,270.800 194.589,270.800 194.820 C 270.800 195.369,268.240 198.000,267.706 198.000 C 267.479 198.000,267.199 198.360,267.084 198.800 C 266.969 199.240,266.588 199.600,266.237 199.600 C 265.329 199.600,265.448 200.267,266.400 200.516 C 266.840 200.631,267.200 201.012,267.200 201.363 C 267.200 201.713,267.407 202.000,267.660 202.000 C 268.228 202.000,270.800 204.604,270.800 205.180 C 270.800 205.411,270.986 205.600,271.213 205.600 C 271.441 205.600,272.251 206.224,273.013 206.987 C 273.776 207.749,274.400 208.559,274.400 208.787 C 274.400 209.014,274.589 209.200,274.820 209.200 C 275.369 209.200,278.000 211.760,278.000 212.294 C 278.000 212.521,278.360 212.801,278.800 212.916 C 279.240 213.031,279.600 213.391,279.600 213.716 C 279.600 214.041,279.973 214.404,280.430 214.524 C 280.886 214.643,281.353 215.097,281.467 215.533 C 281.581 215.969,282.017 216.416,282.437 216.526 C 282.857 216.635,283.200 217.012,283.200 217.363 C 283.200 217.713,283.407 218.000,283.660 218.000 C 284.228 218.000,286.800 220.604,286.800 221.180 C 286.800 221.411,286.986 221.600,287.213 221.600 C 287.751 221.600,290.400 224.249,290.400 224.787 C 290.400 225.014,290.589 225.200,290.820 225.200 C 291.369 225.200,294.000 227.760,294.000 228.294 C 294.000 228.521,294.360 228.801,294.800 228.916 C 295.240 229.031,295.600 229.391,295.600 229.716 C 295.600 230.041,295.973 230.404,296.430 230.524 C 296.886 230.643,297.353 231.097,297.467 231.533 C 297.581 231.969,298.017 232.416,298.437 232.526 C 298.857 232.635,299.200 233.012,299.200 233.363 C 299.200 233.713,299.407 234.000,299.660 234.000 C 300.228 234.000,302.800 236.604,302.800 237.180 C 302.800 237.411,302.986 237.600,303.213 237.600 C 303.751 237.600,306.400 240.249,306.400 240.787 C 306.400 241.014,306.589 241.200,306.820 241.200 C 307.396 241.200,310.000 243.772,310.000 244.340 C 310.000 244.593,310.287 244.800,310.637 244.800 C 310.988 244.800,311.365 245.143,311.474 245.563 C 311.584 245.983,312.031 246.419,312.467 246.533 C 312.903 246.647,313.357 247.114,313.476 247.570 C 313.596 248.027,313.959 248.400,314.284 248.400 C 314.609 248.400,314.969 248.760,315.084 249.200 C 315.199 249.640,315.479 250.000,315.706 250.000 C 316.240 250.000,318.800 252.631,318.800 253.180 C 318.800 253.411,318.986 253.600,319.213 253.600 C 319.751 253.600,322.400 256.249,322.400 256.787 C 322.400 257.014,322.589 257.200,322.820 257.200 C 323.396 257.200,326.000 259.772,326.000 260.340 C 326.000 260.593,326.287 260.800,326.637 260.800 C 326.988 260.800,327.365 261.143,327.474 261.563 C 327.584 261.983,328.031 262.419,328.467 262.533 C 328.903 262.647,329.356 263.112,329.475 263.566 C 330.273 266.617,330.400 257.890,330.400 200.000 C 330.400 142.110,330.273 133.383,329.475 136.434 M68.463 200.000 C 68.463 235.310,68.558 263.963,68.674 263.674 C 68.789 263.385,69.315 262.984,69.842 262.784 C 70.369 262.584,70.800 262.157,70.800 261.837 C 70.800 261.516,71.151 261.143,71.580 261.006 C 72.008 260.870,72.470 260.408,72.606 259.980 C 72.743 259.551,73.100 259.200,73.400 259.200 C 73.700 259.200,74.057 258.849,74.194 258.420 C 74.330 257.992,74.783 257.533,75.200 257.400 C 75.617 257.267,76.070 256.808,76.206 256.380 C 76.343 255.951,76.700 255.600,77.000 255.600 C 77.300 255.600,77.657 255.249,77.794 254.820 C 77.930 254.392,78.372 253.936,78.777 253.807 C 79.182 253.679,79.606 253.219,79.719 252.787 C 79.833 252.354,80.200 252.000,80.536 252.000 C 80.871 252.000,81.257 251.649,81.394 251.220 C 81.530 250.792,81.992 250.330,82.420 250.194 C 82.849 250.057,83.200 249.700,83.200 249.400 C 83.200 249.100,83.551 248.743,83.980 248.606 C 84.408 248.470,84.870 248.008,85.006 247.580 C 85.143 247.151,85.529 246.800,85.864 246.800 C 86.200 246.800,86.567 246.446,86.681 246.013 C 86.794 245.581,87.218 245.121,87.623 244.993 C 88.028 244.864,88.470 244.408,88.606 243.980 C 88.743 243.551,89.100 243.200,89.400 243.200 C 89.700 243.200,90.057 242.849,90.194 242.420 C 90.330 241.992,90.772 241.536,91.177 241.407 C 91.582 241.279,92.006 240.819,92.119 240.387 C 92.233 239.954,92.600 239.600,92.936 239.600 C 93.271 239.600,93.657 239.249,93.794 238.820 C 93.930 238.392,94.392 237.930,94.820 237.794 C 95.249 237.657,95.600 237.271,95.600 236.936 C 95.600 236.600,95.954 236.233,96.387 236.119 C 96.819 236.006,97.279 235.582,97.407 235.177 C 97.536 234.772,97.992 234.330,98.420 234.194 C 98.849 234.057,99.200 233.700,99.200 233.400 C 99.200 233.100,99.551 232.743,99.980 232.606 C 100.408 232.470,100.864 232.028,100.993 231.623 C 101.121 231.218,101.581 230.794,102.013 230.681 C 102.446 230.567,102.800 230.200,102.800 229.864 C 102.800 229.529,103.151 229.143,103.580 229.006 C 104.008 228.870,104.470 228.408,104.606 227.980 C 104.743 227.551,105.100 227.200,105.400 227.200 C 105.700 227.200,106.057 226.849,106.194 226.420 C 106.330 225.992,106.783 225.533,107.200 225.400 C 107.617 225.267,108.070 224.808,108.206 224.380 C 108.343 223.951,108.700 223.600,109.000 223.600 C 109.300 223.600,109.657 223.249,109.794 222.820 C 109.930 222.392,110.392 221.930,110.820 221.794 C 111.249 221.657,111.600 221.271,111.600 220.936 C 111.600 220.600,111.954 220.233,112.387 220.119 C 112.819 220.006,113.279 219.582,113.407 219.177 C 113.536 218.772,113.992 218.330,114.420 218.194 C 114.849 218.057,115.200 217.700,115.200 217.400 C 115.200 217.100,115.551 216.743,115.980 216.606 C 116.408 216.470,116.864 216.028,116.993 215.623 C 117.121 215.218,117.581 214.794,118.013 214.681 C 118.446 214.567,118.800 214.200,118.800 213.864 C 118.800 213.529,119.151 213.143,119.580 213.006 C 120.008 212.870,120.470 212.408,120.606 211.980 C 120.743 211.551,121.100 211.200,121.400 211.200 C 121.700 211.200,122.057 210.849,122.194 210.420 C 122.330 209.992,122.772 209.536,123.177 209.407 C 123.582 209.279,124.006 208.819,124.119 208.387 C 124.233 207.954,124.600 207.600,124.936 207.600 C 125.271 207.600,125.657 207.249,125.794 206.820 C 125.930 206.392,126.392 205.930,126.820 205.794 C 127.249 205.657,127.600 205.300,127.600 205.000 C 127.600 204.700,127.951 204.343,128.380 204.206 C 128.808 204.070,129.267 203.617,129.400 203.200 C 129.533 202.783,129.992 202.330,130.420 202.194 C 130.849 202.057,131.200 201.753,131.200 201.517 C 131.200 201.281,131.515 200.843,131.900 200.544 C 132.567 200.026,132.567 199.974,131.900 199.456 C 131.515 199.157,131.200 198.719,131.200 198.483 C 131.200 198.247,130.849 197.943,130.420 197.806 C 129.992 197.670,129.533 197.217,129.400 196.800 C 129.267 196.383,128.808 195.930,128.380 195.794 C 127.951 195.657,127.600 195.300,127.600 195.000 C 127.600 194.700,127.249 194.343,126.820 194.206 C 126.392 194.070,125.936 193.628,125.807 193.223 C 125.679 192.818,125.219 192.394,124.787 192.281 C 124.354 192.167,124.000 191.800,124.000 191.464 C 124.000 191.129,123.649 190.743,123.220 190.606 C 122.792 190.470,122.330 190.008,122.194 189.580 C 122.057 189.151,121.700 188.800,121.400 188.800 C 121.100 188.800,120.743 188.449,120.606 188.020 C 120.470 187.592,120.028 187.136,119.623 187.007 C 119.218 186.879,118.794 186.419,118.681 185.987 C 118.567 185.554,118.200 185.200,117.864 185.200 C 117.529 185.200,117.143 184.849,117.006 184.420 C 116.870 183.992,116.408 183.530,115.980 183.394 C 115.551 183.257,115.200 182.900,115.200 182.600 C 115.200 182.300,114.849 181.943,114.420 181.806 C 113.992 181.670,113.536 181.228,113.407 180.823 C 113.279 180.418,112.819 179.994,112.387 179.881 C 111.954 179.767,111.600 179.400,111.600 179.064 C 111.600 178.729,111.249 178.343,110.820 178.206 C 110.392 178.070,109.930 177.608,109.794 177.180 C 109.657 176.751,109.300 176.400,109.000 176.400 C 108.700 176.400,108.343 176.049,108.206 175.620 C 108.070 175.192,107.617 174.733,107.200 174.600 C 106.783 174.467,106.330 174.008,106.194 173.580 C 106.057 173.151,105.700 172.800,105.400 172.800 C 105.100 172.800,104.743 172.449,104.606 172.020 C 104.470 171.592,104.028 171.136,103.623 171.007 C 103.218 170.879,102.794 170.419,102.681 169.987 C 102.567 169.554,102.200 169.200,101.864 169.200 C 101.529 169.200,101.143 168.849,101.006 168.420 C 100.870 167.992,100.408 167.530,99.980 167.394 C 99.551 167.257,99.200 166.900,99.200 166.600 C 99.200 166.300,98.849 165.943,98.420 165.806 C 97.992 165.670,97.536 165.228,97.407 164.823 C 97.279 164.418,96.819 163.994,96.387 163.881 C 95.954 163.767,95.600 163.400,95.600 163.064 C 95.600 162.729,95.249 162.343,94.820 162.206 C 94.392 162.070,93.936 161.628,93.807 161.223 C 93.679 160.818,93.219 160.394,92.787 160.281 C 92.354 160.167,92.000 159.800,92.000 159.464 C 92.000 159.129,91.649 158.743,91.220 158.606 C 90.792 158.470,90.330 158.008,90.194 157.580 C 90.057 157.151,89.700 156.800,89.400 156.800 C 89.100 156.800,88.743 156.449,88.606 156.020 C 88.470 155.592,88.028 155.136,87.623 155.007 C 87.218 154.879,86.794 154.419,86.681 153.987 C 86.567 153.554,86.200 153.200,85.864 153.200 C 85.529 153.200,85.143 152.849,85.006 152.420 C 84.870 151.992,84.408 151.530,83.980 151.394 C 83.551 151.257,83.200 150.900,83.200 150.600 C 83.200 150.300,82.849 149.943,82.420 149.806 C 81.992 149.670,81.536 149.228,81.407 148.823 C 81.279 148.418,80.819 147.994,80.387 147.881 C 79.954 147.767,79.600 147.400,79.600 147.064 C 79.600 146.729,79.249 146.343,78.820 146.206 C 78.392 146.070,77.930 145.608,77.794 145.180 C 77.657 144.751,77.300 144.400,77.000 144.400 C 76.700 144.400,76.343 144.049,76.206 143.620 C 76.070 143.192,75.617 142.733,75.200 142.600 C 74.783 142.467,74.330 142.008,74.194 141.580 C 74.057 141.151,73.700 140.800,73.400 140.800 C 73.100 140.800,72.743 140.449,72.606 140.020 C 72.470 139.592,72.008 139.130,71.580 138.994 C 71.151 138.857,70.800 138.484,70.800 138.163 C 70.800 137.843,70.369 137.416,69.842 137.216 C 69.315 137.016,68.789 136.615,68.674 136.326 C 68.558 136.037,68.463 164.690,68.463 200.000 M144.800 214.460 C 144.800 215.028,142.196 217.600,141.620 217.600 C 141.389 217.600,141.200 217.807,141.200 218.060 C 141.200 218.628,138.596 221.200,138.020 221.200 C 137.789 221.200,137.600 221.389,137.600 221.620 C 137.600 222.169,135.040 224.800,134.506 224.800 C 134.279 224.800,133.999 225.160,133.884 225.600 C 133.769 226.040,133.409 226.400,133.084 226.400 C 132.759 226.400,132.396 226.773,132.276 227.230 C 132.157 227.686,131.703 228.153,131.267 228.267 C 130.831 228.381,130.384 228.817,130.274 229.237 C 130.165 229.657,129.788 230.000,129.437 230.000 C 129.087 230.000,128.800 230.207,128.800 230.460 C 128.800 231.028,126.196 233.600,125.620 233.600 C 125.389 233.600,125.200 233.786,125.200 234.013 C 125.200 234.551,122.551 237.200,122.013 237.200 C 121.786 237.200,121.600 237.389,121.600 237.620 C 121.600 238.169,119.040 240.800,118.506 240.800 C 118.279 240.800,117.999 241.160,117.884 241.600 C 117.769 242.040,117.409 242.400,117.084 242.400 C 116.759 242.400,116.396 242.773,116.276 243.230 C 116.157 243.686,115.703 244.153,115.267 244.267 C 114.831 244.381,114.384 244.817,114.274 245.237 C 114.165 245.657,113.788 246.000,113.437 246.000 C 113.087 246.000,112.800 246.207,112.800 246.460 C 112.800 247.028,110.196 249.600,109.620 249.600 C 109.389 249.600,109.198 249.825,109.196 250.100 C 109.191 250.695,106.693 253.200,106.104 253.200 C 105.878 253.200,105.599 253.560,105.484 254.000 C 105.369 254.440,105.009 254.800,104.684 254.800 C 104.359 254.800,103.996 255.173,103.876 255.630 C 103.757 256.086,103.303 256.553,102.867 256.667 C 102.431 256.781,101.984 257.217,101.874 257.637 C 101.765 258.057,101.409 258.400,101.084 258.400 C 100.759 258.400,100.396 258.773,100.276 259.230 C 100.157 259.686,99.703 260.153,99.267 260.267 C 98.831 260.381,98.384 260.817,98.274 261.237 C 98.165 261.657,97.788 262.000,97.437 262.000 C 97.087 262.000,96.800 262.207,96.800 262.460 C 96.800 263.028,94.196 265.600,93.620 265.600 C 93.389 265.600,93.200 265.789,93.200 266.020 C 93.200 266.596,90.628 269.200,90.060 269.200 C 89.807 269.200,89.600 269.389,89.600 269.620 C 89.600 270.169,87.040 272.800,86.506 272.800 C 86.279 272.800,85.999 273.160,85.884 273.600 C 85.769 274.040,85.409 274.400,85.084 274.400 C 84.759 274.400,84.396 274.773,84.276 275.230 C 84.157 275.686,83.703 276.153,83.267 276.267 C 82.831 276.381,82.384 276.817,82.274 277.237 C 82.165 277.657,81.788 278.000,81.437 278.000 C 81.087 278.000,80.800 278.207,80.800 278.460 C 80.800 279.028,78.196 281.600,77.620 281.600 C 77.389 281.600,77.198 281.825,77.196 282.100 C 77.190 282.721,74.681 285.200,74.057 285.200 C 73.806 285.200,73.600 285.389,73.600 285.620 C 73.600 286.196,71.028 288.800,70.460 288.800 C 70.207 288.800,70.000 289.160,70.000 289.600 C 70.000 290.040,69.829 290.400,69.619 290.400 C 69.119 290.400,69.979 292.348,70.989 293.500 C 71.423 293.995,71.984 294.400,72.235 294.400 C 72.486 294.400,73.150 294.760,73.709 295.200 C 75.070 296.270,324.926 296.491,325.336 295.422 C 325.458 295.104,326.181 294.727,326.942 294.584 C 327.829 294.418,328.398 294.051,328.526 293.562 C 328.635 293.143,329.012 292.800,329.363 292.800 C 329.804 292.800,330.000 292.431,330.000 291.600 C 330.000 290.769,329.804 290.400,329.363 290.400 C 329.012 290.400,328.633 290.046,328.519 289.613 C 328.406 289.181,327.982 288.721,327.577 288.593 C 327.172 288.464,326.730 288.008,326.594 287.580 C 326.457 287.151,326.071 286.800,325.736 286.800 C 325.400 286.800,325.033 286.446,324.919 286.013 C 324.806 285.581,324.382 285.121,323.977 284.993 C 323.572 284.864,323.130 284.408,322.994 283.980 C 322.857 283.551,322.471 283.200,322.136 283.200 C 321.800 283.200,321.433 282.846,321.319 282.413 C 321.206 281.981,320.782 281.521,320.377 281.393 C 319.972 281.264,319.530 280.808,319.394 280.380 C 319.257 279.951,318.871 279.600,318.536 279.600 C 318.200 279.600,317.831 279.240,317.716 278.800 C 317.601 278.360,317.253 278.000,316.943 278.000 C 316.634 278.000,316.209 277.550,316.000 277.000 C 315.791 276.450,315.357 276.000,315.037 276.000 C 314.716 276.000,314.340 275.640,314.200 275.200 C 314.060 274.760,313.671 274.400,313.336 274.400 C 313.000 274.400,312.633 274.046,312.519 273.613 C 312.406 273.181,311.982 272.721,311.577 272.593 C 311.172 272.464,310.730 272.008,310.594 271.580 C 310.457 271.151,310.071 270.800,309.736 270.800 C 309.400 270.800,309.033 270.446,308.919 270.013 C 308.806 269.581,308.382 269.121,307.977 268.993 C 307.572 268.864,307.130 268.408,306.994 267.980 C 306.857 267.551,306.471 267.200,306.136 267.200 C 305.800 267.200,305.433 266.846,305.319 266.413 C 305.206 265.981,304.782 265.521,304.377 265.393 C 303.972 265.264,303.530 264.808,303.394 264.380 C 303.257 263.951,302.871 263.600,302.536 263.600 C 302.200 263.600,301.833 263.246,301.719 262.813 C 301.606 262.381,301.192 261.925,300.800 261.800 C 300.408 261.675,299.994 261.219,299.881 260.787 C 299.767 260.354,299.400 260.000,299.064 260.000 C 298.729 260.000,298.340 259.640,298.200 259.200 C 298.060 258.760,297.671 258.400,297.336 258.400 C 297.000 258.400,296.633 258.046,296.519 257.613 C 296.406 257.181,295.982 256.721,295.577 256.593 C 295.172 256.464,294.730 256.008,294.594 255.580 C 294.457 255.151,294.071 254.800,293.736 254.800 C 293.400 254.800,293.033 254.446,292.919 254.013 C 292.806 253.581,292.382 253.121,291.977 252.993 C 291.572 252.864,291.130 252.408,290.994 251.980 C 290.857 251.551,290.471 251.200,290.136 251.200 C 289.800 251.200,289.433 250.846,289.319 250.413 C 289.206 249.981,288.782 249.521,288.377 249.393 C 287.972 249.264,287.536 248.828,287.407 248.423 C 287.279 248.018,286.819 247.594,286.387 247.481 C 285.954 247.367,285.600 246.988,285.600 246.637 C 285.600 246.287,285.326 246.000,284.990 246.000 C 284.655 246.000,284.218 245.575,284.021 245.055 C 283.823 244.535,283.288 244.012,282.831 243.892 C 282.374 243.773,282.000 243.409,282.000 243.084 C 282.000 242.759,281.640 242.399,281.200 242.284 C 280.760 242.169,280.400 241.800,280.400 241.464 C 280.400 241.129,280.049 240.743,279.620 240.606 C 279.192 240.470,278.736 240.028,278.607 239.623 C 278.479 239.218,278.019 238.794,277.587 238.681 C 277.154 238.567,276.800 238.200,276.800 237.864 C 276.800 237.529,276.449 237.143,276.020 237.006 C 275.592 236.870,275.136 236.428,275.007 236.023 C 274.879 235.618,274.419 235.194,273.987 235.081 C 273.554 234.967,273.200 234.600,273.200 234.264 C 273.200 233.929,272.849 233.543,272.420 233.406 C 271.992 233.270,271.536 232.828,271.407 232.423 C 271.279 232.018,270.819 231.594,270.387 231.481 C 269.954 231.367,269.600 231.000,269.600 230.664 C 269.600 230.329,269.240 229.940,268.800 229.800 C 268.360 229.660,268.000 229.271,268.000 228.936 C 268.000 228.600,267.646 228.233,267.213 228.119 C 266.781 228.006,266.325 227.592,266.200 227.200 C 266.075 226.808,265.619 226.394,265.187 226.281 C 264.754 226.167,264.400 225.800,264.400 225.464 C 264.400 225.129,264.049 224.743,263.620 224.606 C 263.192 224.470,262.736 224.028,262.607 223.623 C 262.479 223.218,262.019 222.794,261.587 222.681 C 261.154 222.567,260.800 222.200,260.800 221.864 C 260.800 221.529,260.449 221.143,260.020 221.006 C 259.592 220.870,259.136 220.428,259.007 220.023 C 258.879 219.618,258.419 219.194,257.987 219.081 C 257.554 218.967,257.200 218.600,257.200 218.264 C 257.200 217.929,256.849 217.543,256.420 217.406 C 255.992 217.270,255.536 216.828,255.407 216.423 C 255.279 216.018,254.819 215.594,254.387 215.481 C 253.954 215.367,253.600 214.988,253.600 214.637 C 253.600 214.196,253.231 214.000,252.400 214.000 C 251.569 214.000,251.200 214.196,251.200 214.637 C 251.200 214.988,250.857 215.365,250.437 215.474 C 250.017 215.584,249.581 216.031,249.467 216.467 C 249.353 216.903,248.903 217.353,248.467 217.467 C 248.031 217.581,247.584 218.017,247.474 218.437 C 247.365 218.857,246.988 219.200,246.637 219.200 C 246.287 219.200,246.000 219.407,246.000 219.660 C 246.000 220.228,243.396 222.800,242.820 222.800 C 242.589 222.800,242.400 222.986,242.400 223.213 C 242.400 223.751,239.751 226.400,239.213 226.400 C 238.986 226.400,238.800 226.586,238.800 226.813 C 238.800 227.351,236.151 230.000,235.613 230.000 C 235.386 230.000,235.200 230.276,235.200 230.613 C 235.200 230.949,234.885 231.341,234.500 231.483 C 234.115 231.624,233.417 232.114,232.950 232.570 C 232.482 233.027,231.429 233.850,230.610 234.400 C 229.790 234.950,228.782 235.710,228.370 236.090 C 227.958 236.469,227.179 236.890,226.640 237.026 C 226.100 237.161,225.348 237.616,224.967 238.036 C 224.587 238.456,223.957 238.800,223.567 238.800 C 223.176 238.800,222.616 239.042,222.320 239.337 C 221.450 240.208,220.124 240.800,219.046 240.800 C 218.493 240.800,217.874 241.097,217.670 241.460 C 217.434 241.883,216.478 242.232,215.015 242.430 C 213.743 242.603,212.371 243.065,211.922 243.470 C 210.542 244.719,188.398 244.572,186.353 243.300 C 185.545 242.798,184.264 242.400,183.453 242.400 C 182.574 242.400,181.708 242.108,181.262 241.662 C 180.857 241.257,179.880 240.820,179.092 240.692 C 178.305 240.565,177.287 240.087,176.830 239.630 C 176.374 239.174,175.533 238.800,174.963 238.800 C 174.262 238.800,173.857 238.541,173.716 238.000 C 173.579 237.477,173.170 237.200,172.534 237.200 C 171.999 237.200,171.145 236.750,170.635 236.200 C 170.125 235.650,169.514 235.200,169.277 235.200 C 169.040 235.200,168.607 234.885,168.317 234.500 C 168.026 234.115,167.502 233.620,167.154 233.400 C 164.584 231.779,163.200 230.736,163.200 230.422 C 163.200 230.220,162.849 229.943,162.420 229.806 C 161.992 229.670,161.533 229.217,161.400 228.800 C 161.267 228.383,160.808 227.930,160.380 227.794 C 159.951 227.657,159.600 227.300,159.600 227.000 C 159.600 226.700,159.249 226.343,158.820 226.206 C 158.392 226.070,157.936 225.628,157.807 225.223 C 157.679 224.818,157.219 224.394,156.787 224.281 C 156.354 224.167,156.000 223.800,156.000 223.464 C 156.000 223.129,155.649 222.743,155.220 222.606 C 154.792 222.470,154.330 222.008,154.194 221.580 C 154.057 221.151,153.700 220.800,153.400 220.800 C 153.100 220.800,152.743 220.449,152.606 220.020 C 152.470 219.592,152.008 219.130,151.580 218.994 C 151.151 218.857,150.800 218.471,150.800 218.136 C 150.800 217.800,150.446 217.433,150.013 217.319 C 149.581 217.206,149.121 216.782,148.993 216.377 C 148.864 215.972,148.408 215.530,147.980 215.394 C 147.551 215.257,147.200 214.888,147.200 214.573 C 147.200 214.203,146.775 214.000,146.000 214.000 C 145.340 214.000,144.800 214.207,144.800 214.460 " stroke="none" fill="#fbfbfc" fill-rule="evenodd"></path><path id="path2" d="M74.727 85.807 C 74.611 85.922,73.047 86.275,71.251 86.591 C 69.454 86.907,67.588 87.443,67.103 87.783 C 66.619 88.122,65.966 88.400,65.652 88.400 C 63.350 88.400,53.200 98.121,53.200 100.326 C 53.200 100.483,52.808 101.329,52.330 102.206 C 50.199 106.110,50.268 103.036,50.131 199.600 C 50.031 269.716,50.111 289.577,50.502 291.673 C 50.904 293.833,50.976 276.983,50.877 203.873 C 50.741 103.720,50.676 106.643,53.136 101.646 C 55.549 96.745,58.367 93.435,62.228 90.965 C 63.394 90.219,64.460 89.427,64.597 89.205 C 64.735 88.982,65.116 88.800,65.446 88.800 C 65.775 88.800,66.809 88.451,67.745 88.025 C 71.391 86.364,71.220 86.366,202.959 86.485 C 282.738 86.557,329.140 86.461,328.159 86.224 C 326.532 85.831,75.116 85.417,74.727 85.807 M331.200 87.383 C 331.970 87.684,333.351 88.211,334.269 88.553 C 340.300 90.800,347.574 98.984,348.651 104.733 C 348.802 105.540,349.167 106.779,349.463 107.487 C 350.278 109.439,350.260 291.803,349.445 293.754 C 349.140 294.484,348.760 295.873,348.602 296.841 C 348.443 297.808,348.075 298.870,347.784 299.201 C 347.494 299.531,347.064 300.305,346.831 300.920 C 345.211 305.181,338.295 311.418,333.400 313.035 C 332.520 313.325,331.080 313.833,330.200 314.164 C 327.329 315.242,72.441 315.073,70.056 313.991 C 69.097 313.556,68.107 313.199,67.856 313.198 C 66.111 313.193,59.976 309.020,57.600 306.223 C 57.050 305.575,56.295 304.761,55.922 304.414 C 55.088 303.636,51.970 297.472,51.573 295.813 L 51.282 294.600 51.242 295.800 C 51.221 296.460,51.540 297.552,51.952 298.228 C 52.363 298.903,52.830 299.865,52.989 300.365 C 53.867 303.132,61.617 311.600,63.271 311.600 C 63.492 311.600,64.131 311.960,64.691 312.400 C 65.250 312.840,65.963 313.200,66.276 313.200 C 66.588 313.200,67.689 313.605,68.722 314.100 L 70.600 315.000 200.400 315.000 L 330.200 315.000 332.078 314.100 C 333.111 313.605,334.212 313.200,334.524 313.200 C 334.837 313.200,335.521 312.865,336.046 312.455 C 336.571 312.045,337.405 311.583,337.900 311.428 C 341.325 310.355,347.368 302.136,349.537 295.600 L 350.400 293.000 350.398 200.400 C 350.395 120.101,350.318 107.652,349.812 106.683 C 349.492 106.069,349.113 104.899,348.970 104.083 C 348.827 103.267,348.416 102.150,348.057 101.600 C 347.697 101.050,347.182 100.096,346.912 99.480 C 345.689 96.686,340.904 91.628,337.955 90.010 C 334.753 88.253,331.428 86.801,330.645 86.818 C 330.036 86.830,330.192 86.988,331.200 87.383 M73.238 103.485 C 71.159 104.309,68.632 106.847,67.902 108.846 C 67.724 109.335,161.346 203.204,175.984 217.212 C 176.550 217.753,178.169 218.906,181.660 221.252 C 182.243 221.644,183.180 222.080,183.743 222.222 C 184.307 222.363,184.977 222.731,185.233 223.039 C 185.489 223.348,185.940 223.600,186.237 223.600 C 186.533 223.600,188.154 224.050,189.839 224.600 C 194.058 225.977,205.507 226.098,208.800 224.800 C 209.916 224.360,211.138 223.997,211.515 223.994 C 212.349 223.987,218.713 220.816,220.475 219.529 C 224.796 216.374,331.162 109.383,330.939 108.416 C 330.551 106.734,329.669 105.645,327.685 104.399 L 325.800 103.215 199.800 103.239 C 130.500 103.252,73.547 103.363,73.238 103.485 M326.916 104.492 C 329.470 106.266,330.400 107.326,330.400 108.462 C 330.400 109.407,322.348 117.627,277.090 162.887 C 225.769 214.212,220.603 219.267,218.400 220.317 C 217.850 220.580,217.130 220.957,216.800 221.157 C 215.113 222.176,211.836 223.600,211.178 223.600 C 210.766 223.600,209.516 223.960,208.400 224.400 C 205.417 225.576,194.442 225.576,191.096 224.400 C 189.844 223.960,188.498 223.600,188.104 223.600 C 187.710 223.600,186.761 223.265,185.994 222.856 C 185.227 222.447,184.150 221.975,183.600 221.809 C 183.050 221.642,182.284 221.228,181.897 220.888 C 181.511 220.549,180.861 220.075,180.454 219.836 C 180.047 219.596,179.014 218.927,178.157 218.348 C 177.301 217.770,164.720 205.485,150.200 191.050 C 119.651 160.678,123.336 164.351,121.660 162.600 C 120.923 161.830,120.170 161.200,119.987 161.200 C 119.804 161.200,119.540 160.840,119.400 160.400 C 119.260 159.960,118.900 159.600,118.600 159.600 C 118.300 159.600,117.940 159.240,117.800 158.800 C 117.660 158.360,117.396 158.000,117.213 158.000 C 117.030 158.000,116.277 157.370,115.540 156.600 C 114.803 155.830,113.974 154.975,113.697 154.700 C 113.421 154.425,112.611 153.611,111.897 152.891 C 111.184 152.171,110.014 151.001,109.297 150.291 C 108.581 149.581,99.014 140.061,88.037 129.135 L 68.078 109.270 69.039 107.856 C 69.568 107.079,70.000 106.253,70.000 106.021 C 70.000 105.790,70.190 105.600,70.421 105.600 C 70.653 105.600,71.505 105.150,72.314 104.600 L 73.786 103.600 199.709 103.600 L 325.632 103.600 326.916 104.492 M330.600 134.078 C 329.767 134.550,267.200 197.045,265.804 198.800 C 264.409 200.553,265.015 199.955,297.520 167.476 C 315.093 149.918,329.950 135.304,330.535 135.000 L 331.600 134.447 331.600 200.000 L 331.600 265.553 330.535 265.000 C 329.950 264.696,315.093 250.082,297.520 232.524 C 279.948 214.966,265.444 200.510,265.289 200.400 C 263.957 199.451,270.871 206.476,298.200 233.839 C 326.264 261.938,330.865 266.400,331.774 266.400 C 331.898 266.400,332.000 236.520,332.000 200.000 C 332.000 163.480,331.865 133.605,331.700 133.612 C 331.535 133.619,331.040 133.828,330.600 134.078 M67.843 134.633 C 67.434 135.699,67.574 264.940,67.985 265.590 C 68.521 266.437,133.600 201.382,133.600 200.000 C 133.600 199.159,69.208 134.043,68.343 134.010 C 68.201 134.004,67.976 134.285,67.843 134.633 M101.103 167.306 C 118.757 184.964,133.200 199.676,133.200 200.000 C 133.200 200.714,69.216 264.800,68.503 264.800 C 68.101 264.800,68.000 251.805,68.000 200.000 C 68.000 148.195,68.101 135.200,68.503 135.200 C 68.780 135.200,83.450 149.648,101.103 167.306 M145.400 212.965 C 143.501 214.120,67.806 290.450,67.934 291.081 C 68.175 292.272,69.831 294.360,71.431 295.491 L 73.000 296.600 199.350 296.702 L 325.700 296.804 327.150 295.937 C 329.436 294.571,330.371 293.570,330.797 292.030 L 331.193 290.600 292.297 251.700 C 262.630 222.030,253.177 212.800,252.456 212.800 C 251.757 212.800,249.294 215.015,243.055 221.254 C 229.456 234.853,221.492 240.199,212.200 241.969 C 211.100 242.178,209.127 242.631,207.816 242.975 C 204.155 243.935,194.253 243.837,190.200 242.800 C 188.480 242.360,186.744 242.000,186.344 242.000 C 183.464 242.000,170.065 235.090,166.614 231.824 C 166.134 231.371,161.481 226.815,156.272 221.700 C 151.063 216.585,146.666 212.418,146.501 212.439 C 146.335 212.461,145.840 212.697,145.400 212.965 M156.315 222.400 C 166.529 232.443,167.592 233.394,171.318 235.814 C 172.153 236.356,172.985 236.800,173.169 236.800 C 173.352 236.800,173.718 237.061,173.983 237.380 C 174.248 237.698,175.125 238.174,175.932 238.438 C 176.739 238.701,177.829 239.250,178.354 239.658 C 178.879 240.066,179.651 240.400,180.070 240.400 C 180.489 240.400,181.528 240.755,182.379 241.189 C 183.230 241.624,184.708 242.099,185.663 242.245 C 186.618 242.391,187.940 242.801,188.600 243.156 C 190.390 244.117,207.922 244.108,210.041 243.145 C 210.833 242.785,212.273 242.358,213.241 242.197 C 214.208 242.036,215.630 241.588,216.400 241.201 C 217.170 240.814,218.373 240.374,219.072 240.223 C 219.772 240.072,220.545 239.708,220.789 239.414 C 221.033 239.119,221.693 238.763,222.257 238.622 C 222.820 238.480,223.757 238.050,224.340 237.666 C 224.923 237.282,225.691 236.795,226.048 236.584 C 231.106 233.584,236.413 228.846,248.315 216.700 C 250.201 214.775,252.074 213.200,252.475 213.200 C 253.792 213.200,330.400 290.218,330.400 291.542 C 330.400 292.673,329.467 293.736,326.916 295.508 L 325.632 296.400 199.709 296.400 L 73.786 296.400 72.314 295.400 C 71.505 294.850,70.653 294.400,70.421 294.400 C 70.190 294.400,70.000 294.210,70.000 293.979 C 70.000 293.747,69.564 292.916,69.032 292.133 L 68.063 290.708 106.546 252.216 C 127.712 231.045,145.292 213.618,145.614 213.489 C 146.727 213.043,147.199 213.436,156.315 222.400 " stroke="none" fill="#9b94d4" fill-rule="evenodd"></path><path id="path3" d="M71.800 85.600 C 70.937 86.040,69.647 86.400,68.934 86.400 C 67.573 86.400,65.600 87.122,65.600 87.621 C 65.600 87.782,65.105 88.036,64.500 88.186 C 63.895 88.336,63.040 88.785,62.600 89.184 C 62.160 89.582,61.395 90.031,60.900 90.181 C 60.405 90.331,60.000 90.683,60.000 90.963 C 60.000 91.243,59.550 91.677,59.000 91.927 C 58.450 92.178,58.000 92.657,58.000 92.991 C 58.000 93.326,57.726 93.600,57.390 93.600 C 57.055 93.600,56.609 94.050,56.400 94.600 C 56.191 95.150,55.757 95.600,55.437 95.600 C 55.116 95.600,54.734 95.978,54.587 96.439 C 54.441 96.901,53.979 97.621,53.561 98.039 C 53.142 98.458,52.800 99.147,52.800 99.571 C 52.800 99.996,52.558 100.584,52.263 100.880 C 51.296 101.847,50.800 103.122,50.800 104.642 C 50.800 105.504,50.504 106.464,50.100 106.910 C 49.012 108.113,49.012 292.843,50.100 294.504 C 50.485 295.091,50.800 296.116,50.800 296.780 C 50.800 298.122,53.077 302.778,53.885 303.088 C 54.168 303.197,54.400 303.635,54.400 304.062 C 54.400 304.489,54.818 305.235,55.330 305.719 C 55.841 306.204,56.376 306.915,56.517 307.300 C 56.659 307.685,57.038 308.000,57.360 308.000 C 57.683 308.000,58.054 308.315,58.186 308.700 C 58.450 309.469,60.276 310.844,62.300 311.798 C 63.015 312.135,63.600 312.580,63.600 312.787 C 63.600 312.994,64.275 313.286,65.100 313.435 C 65.925 313.584,66.896 314.014,67.257 314.390 C 68.974 316.177,69.024 316.178,200.600 316.150 C 332.545 316.123,331.479 316.138,333.495 314.300 C 333.917 313.915,334.630 313.600,335.078 313.600 C 335.526 313.600,336.345 313.244,336.899 312.808 C 337.453 312.372,338.377 311.837,338.953 311.618 C 339.529 311.399,340.000 310.945,340.000 310.610 C 340.000 310.258,340.354 310.000,340.837 310.000 C 341.334 310.000,341.759 309.680,341.881 309.213 C 341.994 308.781,342.427 308.318,342.843 308.186 C 343.259 308.054,343.600 307.777,343.600 307.570 C 343.600 307.364,344.050 306.803,344.600 306.325 C 345.150 305.847,345.600 305.261,345.600 305.024 C 345.600 304.787,345.937 304.382,346.350 304.124 C 346.762 303.867,347.216 303.189,347.360 302.618 C 347.503 302.047,347.976 301.224,348.410 300.790 C 348.891 300.309,349.200 299.461,349.200 298.620 C 349.200 297.721,349.444 297.103,349.900 296.848 C 351.079 296.188,351.181 105.981,350.002 104.802 C 349.561 104.361,349.197 103.505,349.194 102.900 C 349.191 102.295,348.926 101.350,348.605 100.800 C 348.284 100.250,347.744 99.215,347.405 98.500 C 347.066 97.785,346.522 97.200,346.195 97.200 C 345.868 97.200,345.600 96.872,345.600 96.472 C 345.600 95.656,339.934 90.000,339.116 90.000 C 338.828 90.000,338.378 89.656,338.115 89.236 C 337.853 88.816,337.047 88.342,336.325 88.183 C 335.602 88.025,334.823 87.637,334.592 87.321 C 334.361 87.005,333.368 86.650,332.386 86.532 C 331.404 86.413,329.868 85.975,328.974 85.558 C 326.344 84.332,74.206 84.373,71.800 85.600 M329.400 86.470 C 333.368 87.358,338.121 89.723,341.070 92.277 C 343.107 94.041,346.201 97.855,346.912 99.480 C 347.182 100.096,347.697 101.050,348.057 101.600 C 348.416 102.150,348.827 103.267,348.970 104.083 C 349.113 104.899,349.492 106.069,349.812 106.683 C 350.318 107.652,350.395 120.101,350.398 200.400 L 350.400 293.000 349.537 295.600 C 347.368 302.136,341.325 310.355,337.900 311.428 C 337.405 311.583,336.571 312.045,336.046 312.455 C 335.521 312.865,334.837 313.200,334.524 313.200 C 334.212 313.200,333.111 313.605,332.078 314.100 L 330.200 315.000 200.400 315.000 L 70.600 315.000 68.722 314.100 C 67.689 313.605,66.588 313.200,66.276 313.200 C 65.963 313.200,65.250 312.840,64.691 312.400 C 64.131 311.960,63.492 311.600,63.271 311.600 C 61.810 311.600,53.200 302.430,53.200 300.874 C 53.200 300.717,52.814 299.871,52.343 298.994 C 49.912 294.471,49.980 297.533,50.126 199.437 C 50.269 103.055,50.199 106.109,52.330 102.206 C 52.808 101.329,53.200 100.483,53.200 100.326 C 53.200 98.121,63.350 88.400,65.652 88.400 C 65.966 88.400,66.619 88.122,67.103 87.783 C 67.588 87.443,69.454 86.907,71.251 86.591 C 73.047 86.275,74.611 85.922,74.727 85.807 C 75.337 85.197,326.637 85.851,329.400 86.470 M72.314 104.600 C 71.505 105.150,70.653 105.600,70.421 105.600 C 70.190 105.600,70.000 105.790,70.000 106.021 C 70.000 106.253,69.568 107.079,69.039 107.856 L 68.078 109.270 88.037 129.135 C 99.014 140.061,108.581 149.581,109.297 150.291 C 110.014 151.001,111.184 152.171,111.897 152.891 C 112.611 153.611,113.421 154.425,113.697 154.700 C 113.974 154.975,114.803 155.830,115.540 156.600 C 116.277 157.370,117.030 158.000,117.213 158.000 C 117.396 158.000,117.660 158.360,117.800 158.800 C 117.940 159.240,118.300 159.600,118.600 159.600 C 118.900 159.600,119.260 159.960,119.400 160.400 C 119.540 160.840,119.804 161.200,119.987 161.200 C 120.170 161.200,120.923 161.830,121.660 162.600 C 123.336 164.351,119.651 160.678,150.200 191.050 C 164.720 205.485,177.301 217.770,178.157 218.348 C 179.014 218.927,180.047 219.596,180.454 219.836 C 180.861 220.075,181.511 220.549,181.897 220.888 C 182.284 221.228,183.050 221.642,183.600 221.809 C 184.150 221.975,185.227 222.447,185.994 222.856 C 186.761 223.265,187.710 223.600,188.104 223.600 C 188.498 223.600,189.844 223.960,191.096 224.400 C 192.348 224.840,194.009 225.175,194.786 225.146 C 195.847 225.105,195.957 225.045,195.229 224.908 C 194.695 224.808,193.873 224.473,193.402 224.164 C 192.930 223.856,191.416 223.485,190.037 223.341 C 188.533 223.184,187.447 222.867,187.326 222.550 C 187.214 222.260,186.465 221.905,185.661 221.761 C 184.858 221.618,183.840 221.184,183.400 220.797 C 182.960 220.409,182.150 219.955,181.600 219.789 C 181.050 219.622,180.365 219.151,180.077 218.743 C 179.790 218.334,179.383 218.000,179.172 218.000 C 178.597 218.000,176.973 216.436,158.401 198.000 C 118.757 158.645,104.692 144.800,104.356 144.800 C 104.160 144.800,104.000 144.599,104.000 144.354 C 104.000 143.861,101.234 141.200,100.722 141.200 C 100.545 141.200,100.400 140.913,100.400 140.563 C 100.400 140.212,100.046 139.833,99.613 139.719 C 99.181 139.606,98.721 139.182,98.593 138.777 C 98.464 138.372,98.028 137.936,97.623 137.807 C 97.218 137.679,96.794 137.219,96.681 136.787 C 96.567 136.354,96.200 136.000,95.864 136.000 C 95.529 136.000,95.140 135.640,95.000 135.200 C 94.860 134.760,94.398 134.400,93.973 134.400 C 93.476 134.400,93.200 134.124,93.200 133.627 C 93.200 133.202,92.849 132.743,92.420 132.606 C 91.992 132.470,91.530 132.008,91.394 131.580 C 91.257 131.151,90.798 130.800,90.373 130.800 C 89.876 130.800,89.600 130.524,89.600 130.027 C 89.600 129.602,89.249 129.143,88.820 129.006 C 88.392 128.870,87.936 128.428,87.807 128.023 C 87.679 127.618,87.219 127.194,86.787 127.081 C 86.354 126.967,86.000 126.588,86.000 126.237 C 86.000 125.887,85.726 125.600,85.390 125.600 C 85.055 125.600,84.609 125.150,84.400 124.600 C 84.191 124.050,83.757 123.600,83.437 123.600 C 83.116 123.600,82.746 123.259,82.614 122.843 C 82.482 122.427,82.019 121.994,81.587 121.881 C 81.154 121.767,80.800 121.400,80.800 121.064 C 80.800 120.729,80.449 120.343,80.020 120.206 C 79.592 120.070,79.130 119.608,78.994 119.180 C 78.857 118.751,78.398 118.400,77.973 118.400 C 77.467 118.400,77.200 118.124,77.200 117.600 C 77.200 117.160,77.019 116.800,76.797 116.800 C 76.576 116.800,76.003 116.350,75.525 115.800 C 75.047 115.250,74.418 114.800,74.128 114.800 C 73.838 114.800,73.600 114.611,73.600 114.380 C 73.600 113.804,71.028 111.200,70.460 111.200 C 70.207 111.200,70.000 110.840,70.000 110.400 C 70.000 109.960,69.829 109.600,69.619 109.600 C 69.119 109.600,69.979 107.652,70.989 106.500 C 71.423 106.005,71.984 105.600,72.235 105.600 C 72.486 105.600,73.150 105.240,73.709 104.800 C 75.070 103.730,324.926 103.509,325.336 104.578 C 325.458 104.896,326.197 105.276,326.979 105.422 C 327.848 105.585,328.400 105.919,328.400 106.282 C 328.400 106.608,328.760 106.969,329.200 107.084 C 329.757 107.230,330.000 107.630,330.000 108.400 C 330.000 109.170,329.757 109.570,329.200 109.716 C 328.760 109.831,328.400 110.200,328.400 110.536 C 328.400 110.871,328.049 111.257,327.620 111.394 C 327.192 111.530,326.736 111.972,326.607 112.377 C 326.479 112.782,326.019 113.206,325.587 113.319 C 325.154 113.433,324.800 113.800,324.800 114.136 C 324.800 114.471,324.449 114.857,324.020 114.994 C 323.592 115.130,323.136 115.572,323.007 115.977 C 322.879 116.382,322.419 116.806,321.987 116.919 C 321.554 117.033,321.200 117.400,321.200 117.736 C 321.200 118.071,320.849 118.457,320.420 118.594 C 319.992 118.730,319.536 119.172,319.407 119.577 C 319.279 119.982,318.819 120.406,318.387 120.519 C 317.954 120.633,317.600 121.012,317.600 121.363 C 317.600 121.713,317.326 122.000,316.990 122.000 C 316.655 122.000,316.209 122.450,316.000 123.000 C 315.791 123.550,315.357 124.000,315.037 124.000 C 314.716 124.000,314.346 124.341,314.214 124.757 C 314.082 125.173,313.619 125.606,313.187 125.719 C 312.754 125.833,312.400 126.200,312.400 126.536 C 312.400 126.871,312.049 127.257,311.620 127.394 C 311.192 127.530,310.736 127.972,310.607 128.377 C 310.479 128.782,310.019 129.206,309.587 129.319 C 309.154 129.433,308.800 129.800,308.800 130.136 C 308.800 130.471,308.449 130.857,308.020 130.994 C 307.592 131.130,307.136 131.572,307.007 131.977 C 306.879 132.382,306.419 132.806,305.987 132.919 C 305.554 133.033,305.200 133.400,305.200 133.736 C 305.200 134.071,304.849 134.457,304.420 134.594 C 303.992 134.730,303.536 135.172,303.407 135.577 C 303.279 135.982,302.819 136.406,302.387 136.519 C 301.954 136.633,301.600 137.000,301.600 137.336 C 301.600 137.671,301.240 138.060,300.800 138.200 C 300.360 138.340,300.000 138.729,300.000 139.064 C 300.000 139.400,299.646 139.767,299.213 139.881 C 298.781 139.994,298.325 140.408,298.200 140.800 C 298.075 141.192,297.619 141.606,297.187 141.719 C 296.754 141.833,296.400 142.200,296.400 142.536 C 296.400 142.871,296.049 143.257,295.620 143.394 C 295.192 143.530,294.736 143.972,294.607 144.377 C 294.479 144.782,294.019 145.206,293.587 145.319 C 293.154 145.433,292.800 145.800,292.800 146.136 C 292.800 146.471,292.449 146.857,292.020 146.994 C 291.592 147.130,291.136 147.572,291.007 147.977 C 290.879 148.382,290.419 148.806,289.987 148.919 C 289.554 149.033,289.200 149.400,289.200 149.736 C 289.200 150.071,288.849 150.457,288.420 150.594 C 287.992 150.730,287.530 151.192,287.394 151.620 C 287.257 152.049,286.871 152.400,286.536 152.400 C 286.200 152.400,285.831 152.760,285.716 153.200 C 285.601 153.640,285.253 154.000,284.943 154.000 C 284.634 154.000,284.218 154.425,284.021 154.945 C 283.823 155.465,283.288 155.988,282.831 156.108 C 282.374 156.227,282.000 156.591,282.000 156.916 C 282.000 157.241,281.640 157.601,281.200 157.716 C 280.760 157.831,280.400 158.200,280.400 158.536 C 280.400 158.871,280.049 159.257,279.620 159.394 C 279.192 159.530,278.730 159.992,278.594 160.420 C 278.457 160.849,278.071 161.200,277.736 161.200 C 277.400 161.200,277.033 161.554,276.919 161.987 C 276.806 162.419,276.382 162.879,275.977 163.007 C 275.572 163.136,275.130 163.592,274.994 164.020 C 274.857 164.449,274.471 164.800,274.136 164.800 C 273.800 164.800,273.433 165.154,273.319 165.587 C 273.206 166.019,272.782 166.479,272.377 166.607 C 271.972 166.736,271.530 167.192,271.394 167.620 C 271.257 168.049,270.871 168.400,270.536 168.400 C 270.200 168.400,269.833 168.754,269.719 169.187 C 269.606 169.619,269.192 170.075,268.800 170.200 C 268.408 170.325,267.994 170.781,267.881 171.213 C 267.767 171.646,267.400 172.000,267.064 172.000 C 266.729 172.000,266.340 172.360,266.200 172.800 C 266.060 173.240,265.671 173.600,265.336 173.600 C 265.000 173.600,264.633 173.954,264.519 174.387 C 264.406 174.819,263.982 175.279,263.577 175.407 C 263.172 175.536,262.730 175.992,262.594 176.420 C 262.457 176.849,262.071 177.200,261.736 177.200 C 261.400 177.200,261.033 177.554,260.919 177.987 C 260.806 178.419,260.382 178.879,259.977 179.007 C 259.572 179.136,259.130 179.592,258.994 180.020 C 258.857 180.449,258.471 180.800,258.136 180.800 C 257.800 180.800,257.433 181.154,257.319 181.587 C 257.206 182.019,256.782 182.479,256.377 182.607 C 255.972 182.736,255.530 183.192,255.394 183.620 C 255.257 184.049,254.871 184.400,254.536 184.400 C 254.200 184.400,253.831 184.760,253.716 185.200 C 253.601 185.640,253.241 186.000,252.916 186.000 C 252.591 186.000,252.227 186.374,252.108 186.831 C 251.988 187.288,251.465 187.823,250.945 188.021 C 250.425 188.218,250.000 188.655,250.000 188.990 C 250.000 189.326,249.713 189.600,249.363 189.600 C 249.012 189.600,248.633 189.954,248.519 190.387 C 248.406 190.819,247.982 191.279,247.577 191.407 C 247.172 191.536,246.730 191.992,246.594 192.420 C 246.457 192.849,246.071 193.200,245.736 193.200 C 245.400 193.200,245.033 193.554,244.919 193.987 C 244.806 194.419,244.382 194.879,243.977 195.007 C 243.572 195.136,243.130 195.592,242.994 196.020 C 242.857 196.449,242.471 196.800,242.136 196.800 C 241.800 196.800,241.433 197.154,241.319 197.587 C 241.206 198.019,240.782 198.479,240.377 198.607 C 239.972 198.736,239.530 199.192,239.394 199.620 C 239.257 200.049,238.871 200.400,238.536 200.400 C 238.200 200.400,237.833 200.754,237.719 201.187 C 237.606 201.619,237.192 202.075,236.800 202.200 C 236.408 202.325,235.994 202.781,235.881 203.213 C 235.767 203.646,235.400 204.000,235.064 204.000 C 234.729 204.000,234.340 204.360,234.200 204.800 C 234.060 205.240,233.671 205.600,233.336 205.600 C 233.000 205.600,232.633 205.954,232.519 206.387 C 232.406 206.819,231.982 207.279,231.577 207.407 C 231.172 207.536,230.730 207.992,230.594 208.420 C 230.457 208.849,230.071 209.200,229.736 209.200 C 229.400 209.200,229.033 209.554,228.919 209.987 C 228.806 210.419,228.382 210.879,227.977 211.007 C 227.572 211.136,227.130 211.592,226.994 212.020 C 226.857 212.449,226.471 212.800,226.136 212.800 C 225.800 212.800,225.433 213.154,225.319 213.587 C 225.206 214.019,224.782 214.479,224.377 214.607 C 223.972 214.736,223.530 215.192,223.394 215.620 C 223.257 216.049,222.871 216.400,222.536 216.400 C 222.200 216.400,221.831 216.760,221.716 217.200 C 221.601 217.640,221.239 218.000,220.911 218.000 C 220.584 218.000,219.781 218.450,219.127 219.000 C 218.473 219.550,217.682 220.000,217.369 220.000 C 217.056 220.000,216.440 220.360,216.000 220.800 C 215.560 221.240,214.774 221.600,214.254 221.600 C 213.734 221.600,212.879 221.937,212.354 222.350 C 211.809 222.778,210.370 223.219,209.000 223.378 C 207.680 223.532,205.880 223.998,205.000 224.415 L 203.400 225.173 204.885 225.186 C 205.702 225.194,207.284 224.840,208.400 224.400 C 209.516 223.960,210.766 223.600,211.178 223.600 C 211.836 223.600,215.113 222.176,216.800 221.157 C 217.130 220.957,217.850 220.580,218.400 220.317 C 220.603 219.267,225.769 214.212,277.090 162.887 C 322.348 117.627,330.400 109.407,330.400 108.462 C 330.400 107.326,329.470 106.266,326.916 104.492 L 325.632 103.600 199.709 103.600 L 73.786 103.600 72.314 104.600 M330.400 135.030 C 329.850 135.330,314.912 150.071,297.205 167.788 L 265.010 200.000 297.205 232.209 C 314.912 249.924,329.895 264.670,330.500 264.978 L 331.600 265.539 331.600 199.969 C 331.600 163.906,331.555 134.419,331.500 134.442 C 331.445 134.466,330.950 134.730,330.400 135.030 M68.000 200.000 C 68.000 251.805,68.101 264.800,68.503 264.800 C 69.216 264.800,133.200 200.714,133.200 200.000 C 133.200 199.286,69.216 135.200,68.503 135.200 C 68.101 135.200,68.000 148.195,68.000 200.000 M330.400 200.000 C 330.400 257.890,330.273 266.617,329.475 263.566 C 329.356 263.112,328.903 262.647,328.467 262.533 C 328.031 262.419,327.584 261.983,327.474 261.563 C 327.365 261.143,326.988 260.800,326.637 260.800 C 326.287 260.800,326.000 260.593,326.000 260.340 C 326.000 259.772,323.396 257.200,322.820 257.200 C 322.589 257.200,322.400 257.014,322.400 256.787 C 322.400 256.249,319.751 253.600,319.213 253.600 C 318.986 253.600,318.800 253.411,318.800 253.180 C 318.800 252.631,316.240 250.000,315.706 250.000 C 315.479 250.000,315.199 249.640,315.084 249.200 C 314.969 248.760,314.609 248.400,314.284 248.400 C 313.959 248.400,313.596 248.027,313.476 247.570 C 313.357 247.114,312.903 246.647,312.467 246.533 C 312.031 246.419,311.584 245.983,311.474 245.563 C 311.365 245.143,310.988 244.800,310.637 244.800 C 310.287 244.800,310.000 244.593,310.000 244.340 C 310.000 243.772,307.396 241.200,306.820 241.200 C 306.589 241.200,306.400 241.014,306.400 240.787 C 306.400 240.249,303.751 237.600,303.213 237.600 C 302.986 237.600,302.800 237.411,302.800 237.180 C 302.800 236.604,300.228 234.000,299.660 234.000 C 299.407 234.000,299.200 233.713,299.200 233.363 C 299.200 233.012,298.857 232.635,298.437 232.526 C 298.017 232.416,297.581 231.969,297.467 231.533 C 297.353 231.097,296.886 230.643,296.430 230.524 C 295.973 230.404,295.600 230.041,295.600 229.716 C 295.600 229.391,295.240 229.031,294.800 228.916 C 294.360 228.801,294.000 228.521,294.000 228.294 C 294.000 227.760,291.369 225.200,290.820 225.200 C 290.589 225.200,290.400 225.014,290.400 224.787 C 290.400 224.249,287.751 221.600,287.213 221.600 C 286.986 221.600,286.800 221.411,286.800 221.180 C 286.800 220.604,284.228 218.000,283.660 218.000 C 283.407 218.000,283.200 217.713,283.200 217.363 C 283.200 217.012,282.857 216.635,282.437 216.526 C 282.017 216.416,281.581 215.969,281.467 215.533 C 281.353 215.097,280.886 214.643,280.430 214.524 C 279.973 214.404,279.600 214.041,279.600 213.716 C 279.600 213.391,279.240 213.031,278.800 212.916 C 278.360 212.801,278.000 212.521,278.000 212.294 C 278.000 211.760,275.369 209.200,274.820 209.200 C 274.589 209.200,274.400 209.014,274.400 208.787 C 274.400 208.559,273.776 207.749,273.013 206.987 C 272.251 206.224,271.441 205.600,271.213 205.600 C 270.986 205.600,270.800 205.411,270.800 205.180 C 270.800 204.604,268.228 202.000,267.660 202.000 C 267.407 202.000,267.200 201.713,267.200 201.363 C 267.200 201.012,266.840 200.631,266.400 200.516 C 265.448 200.267,265.329 199.600,266.237 199.600 C 266.588 199.600,266.969 199.240,267.084 198.800 C 267.199 198.360,267.479 198.000,267.706 198.000 C 268.240 198.000,270.800 195.369,270.800 194.820 C 270.800 194.589,270.986 194.400,271.213 194.400 C 271.751 194.400,274.400 191.751,274.400 191.213 C 274.400 190.986,274.589 190.800,274.820 190.800 C 275.396 190.800,278.000 188.228,278.000 187.660 C 278.000 187.407,278.287 187.200,278.637 187.200 C 278.988 187.200,279.365 186.857,279.474 186.437 C 279.584 186.017,280.031 185.581,280.467 185.467 C 280.903 185.353,281.357 184.886,281.476 184.430 C 281.596 183.973,281.959 183.600,282.284 183.600 C 282.609 183.600,282.969 183.240,283.084 182.800 C 283.199 182.360,283.479 182.000,283.706 182.000 C 284.240 182.000,286.800 179.369,286.800 178.820 C 286.800 178.589,286.986 178.400,287.213 178.400 C 287.751 178.400,290.400 175.751,290.400 175.213 C 290.400 174.986,290.589 174.800,290.820 174.800 C 291.396 174.800,294.000 172.228,294.000 171.660 C 294.000 171.407,294.287 171.200,294.637 171.200 C 294.988 171.200,295.365 170.857,295.474 170.437 C 295.584 170.017,296.031 169.581,296.467 169.467 C 296.903 169.353,297.357 168.886,297.476 168.430 C 297.596 167.973,297.959 167.600,298.284 167.600 C 298.609 167.600,298.969 167.240,299.084 166.800 C 299.199 166.360,299.479 166.000,299.706 166.000 C 300.240 166.000,302.800 163.369,302.800 162.820 C 302.800 162.589,302.986 162.400,303.213 162.400 C 303.751 162.400,306.400 159.751,306.400 159.213 C 306.400 158.986,306.589 158.800,306.820 158.800 C 307.396 158.800,310.000 156.228,310.000 155.660 C 310.000 155.407,310.287 155.200,310.637 155.200 C 310.988 155.200,311.365 154.857,311.474 154.437 C 311.584 154.017,312.031 153.581,312.467 153.467 C 312.903 153.353,313.357 152.886,313.476 152.430 C 313.596 151.973,313.959 151.600,314.284 151.600 C 314.609 151.600,314.969 151.240,315.084 150.800 C 315.199 150.360,315.479 150.000,315.706 150.000 C 316.240 150.000,318.800 147.369,318.800 146.820 C 318.800 146.589,318.986 146.400,319.213 146.400 C 319.751 146.400,322.400 143.751,322.400 143.213 C 322.400 142.986,322.589 142.800,322.820 142.800 C 323.396 142.800,326.000 140.228,326.000 139.660 C 326.000 139.407,326.287 139.200,326.637 139.200 C 326.988 139.200,327.365 138.857,327.474 138.437 C 327.584 138.017,328.031 137.581,328.467 137.467 C 328.903 137.353,329.356 136.888,329.475 136.434 C 330.273 133.383,330.400 142.110,330.400 200.000 M69.842 137.216 C 70.369 137.416,70.800 137.843,70.800 138.163 C 70.800 138.484,71.151 138.857,71.580 138.994 C 72.008 139.130,72.470 139.592,72.606 140.020 C 72.743 140.449,73.100 140.800,73.400 140.800 C 73.700 140.800,74.057 141.151,74.194 141.580 C 74.330 142.008,74.783 142.467,75.200 142.600 C 75.617 142.733,76.070 143.192,76.206 143.620 C 76.343 144.049,76.700 144.400,77.000 144.400 C 77.300 144.400,77.657 144.751,77.794 145.180 C 77.930 145.608,78.392 146.070,78.820 146.206 C 79.249 146.343,79.600 146.729,79.600 147.064 C 79.600 147.400,79.954 147.767,80.387 147.881 C 80.819 147.994,81.279 148.418,81.407 148.823 C 81.536 149.228,81.992 149.670,82.420 149.806 C 82.849 149.943,83.200 150.300,83.200 150.600 C 83.200 150.900,83.551 151.257,83.980 151.394 C 84.408 151.530,84.870 151.992,85.006 152.420 C 85.143 152.849,85.529 153.200,85.864 153.200 C 86.200 153.200,86.567 153.554,86.681 153.987 C 86.794 154.419,87.218 154.879,87.623 155.007 C 88.028 155.136,88.470 155.592,88.606 156.020 C 88.743 156.449,89.100 156.800,89.400 156.800 C 89.700 156.800,90.057 157.151,90.194 157.580 C 90.330 158.008,90.792 158.470,91.220 158.606 C 91.649 158.743,92.000 159.129,92.000 159.464 C 92.000 159.800,92.354 160.167,92.787 160.281 C 93.219 160.394,93.679 160.818,93.807 161.223 C 93.936 161.628,94.392 162.070,94.820 162.206 C 95.249 162.343,95.600 162.729,95.600 163.064 C 95.600 163.400,95.954 163.767,96.387 163.881 C 96.819 163.994,97.279 164.418,97.407 164.823 C 97.536 165.228,97.992 165.670,98.420 165.806 C 98.849 165.943,99.200 166.300,99.200 166.600 C 99.200 166.900,99.551 167.257,99.980 167.394 C 100.408 167.530,100.870 167.992,101.006 168.420 C 101.143 168.849,101.529 169.200,101.864 169.200 C 102.200 169.200,102.567 169.554,102.681 169.987 C 102.794 170.419,103.218 170.879,103.623 171.007 C 104.028 171.136,104.470 171.592,104.606 172.020 C 104.743 172.449,105.100 172.800,105.400 172.800 C 105.700 172.800,106.057 173.151,106.194 173.580 C 106.330 174.008,106.783 174.467,107.200 174.600 C 107.617 174.733,108.070 175.192,108.206 175.620 C 108.343 176.049,108.700 176.400,109.000 176.400 C 109.300 176.400,109.657 176.751,109.794 177.180 C 109.930 177.608,110.392 178.070,110.820 178.206 C 111.249 178.343,111.600 178.729,111.600 179.064 C 111.600 179.400,111.954 179.767,112.387 179.881 C 112.819 179.994,113.279 180.418,113.407 180.823 C 113.536 181.228,113.992 181.670,114.420 181.806 C 114.849 181.943,115.200 182.300,115.200 182.600 C 115.200 182.900,115.551 183.257,115.980 183.394 C 116.408 183.530,116.870 183.992,117.006 184.420 C 117.143 184.849,117.529 185.200,117.864 185.200 C 118.200 185.200,118.567 185.554,118.681 185.987 C 118.794 186.419,119.218 186.879,119.623 187.007 C 120.028 187.136,120.470 187.592,120.606 188.020 C 120.743 188.449,121.100 188.800,121.400 188.800 C 121.700 188.800,122.057 189.151,122.194 189.580 C 122.330 190.008,122.792 190.470,123.220 190.606 C 123.649 190.743,124.000 191.129,124.000 191.464 C 124.000 191.800,124.354 192.167,124.787 192.281 C 125.219 192.394,125.679 192.818,125.807 193.223 C 125.936 193.628,126.392 194.070,126.820 194.206 C 127.249 194.343,127.600 194.700,127.600 195.000 C 127.600 195.300,127.951 195.657,128.380 195.794 C 128.808 195.930,129.267 196.383,129.400 196.800 C 129.533 197.217,129.992 197.670,130.420 197.806 C 130.849 197.943,131.200 198.247,131.200 198.483 C 131.200 198.719,131.515 199.157,131.900 199.456 C 132.567 199.974,132.567 200.026,131.900 200.544 C 131.515 200.843,131.200 201.281,131.200 201.517 C 131.200 201.753,130.849 202.057,130.420 202.194 C 129.992 202.330,129.533 202.783,129.400 203.200 C 129.267 203.617,128.808 204.070,128.380 204.206 C 127.951 204.343,127.600 204.700,127.600 205.000 C 127.600 205.300,127.249 205.657,126.820 205.794 C 126.392 205.930,125.930 206.392,125.794 206.820 C 125.657 207.249,125.271 207.600,124.936 207.600 C 124.600 207.600,124.233 207.954,124.119 208.387 C 124.006 208.819,123.582 209.279,123.177 209.407 C 122.772 209.536,122.330 209.992,122.194 210.420 C 122.057 210.849,121.700 211.200,121.400 211.200 C 121.100 211.200,120.743 211.551,120.606 211.980 C 120.470 212.408,120.008 212.870,119.580 213.006 C 119.151 213.143,118.800 213.529,118.800 213.864 C 118.800 214.200,118.446 214.567,118.013 214.681 C 117.581 214.794,117.121 215.218,116.993 215.623 C 116.864 216.028,116.408 216.470,115.980 216.606 C 115.551 216.743,115.200 217.100,115.200 217.400 C 115.200 217.700,114.849 218.057,114.420 218.194 C 113.992 218.330,113.536 218.772,113.407 219.177 C 113.279 219.582,112.819 220.006,112.387 220.119 C 111.954 220.233,111.600 220.600,111.600 220.936 C 111.600 221.271,111.249 221.657,110.820 221.794 C 110.392 221.930,109.930 222.392,109.794 222.820 C 109.657 223.249,109.300 223.600,109.000 223.600 C 108.700 223.600,108.343 223.951,108.206 224.380 C 108.070 224.808,107.617 225.267,107.200 225.400 C 106.783 225.533,106.330 225.992,106.194 226.420 C 106.057 226.849,105.700 227.200,105.400 227.200 C 105.100 227.200,104.743 227.551,104.606 227.980 C 104.470 228.408,104.008 228.870,103.580 229.006 C 103.151 229.143,102.800 229.529,102.800 229.864 C 102.800 230.200,102.446 230.567,102.013 230.681 C 101.581 230.794,101.121 231.218,100.993 231.623 C 100.864 232.028,100.408 232.470,99.980 232.606 C 99.551 232.743,99.200 233.100,99.200 233.400 C 99.200 233.700,98.849 234.057,98.420 234.194 C 97.992 234.330,97.536 234.772,97.407 235.177 C 97.279 235.582,96.819 236.006,96.387 236.119 C 95.954 236.233,95.600 236.600,95.600 236.936 C 95.600 237.271,95.249 237.657,94.820 237.794 C 94.392 237.930,93.930 238.392,93.794 238.820 C 93.657 239.249,93.271 239.600,92.936 239.600 C 92.600 239.600,92.233 239.954,92.119 240.387 C 92.006 240.819,91.582 241.279,91.177 241.407 C 90.772 241.536,90.330 241.992,90.194 242.420 C 90.057 242.849,89.700 243.200,89.400 243.200 C 89.100 243.200,88.743 243.551,88.606 243.980 C 88.470 244.408,88.028 244.864,87.623 244.993 C 87.218 245.121,86.794 245.581,86.681 246.013 C 86.567 246.446,86.200 246.800,85.864 246.800 C 85.529 246.800,85.143 247.151,85.006 247.580 C 84.870 248.008,84.408 248.470,83.980 248.606 C 83.551 248.743,83.200 249.100,83.200 249.400 C 83.200 249.700,82.849 250.057,82.420 250.194 C 81.992 250.330,81.530 250.792,81.394 251.220 C 81.257 251.649,80.871 252.000,80.536 252.000 C 80.200 252.000,79.833 252.354,79.719 252.787 C 79.606 253.219,79.182 253.679,78.777 253.807 C 78.372 253.936,77.930 254.392,77.794 254.820 C 77.657 255.249,77.300 255.600,77.000 255.600 C 76.700 255.600,76.343 255.951,76.206 256.380 C 76.070 256.808,75.617 257.267,75.200 257.400 C 74.783 257.533,74.330 257.992,74.194 258.420 C 74.057 258.849,73.700 259.200,73.400 259.200 C 73.100 259.200,72.743 259.551,72.606 259.980 C 72.470 260.408,72.008 260.870,71.580 261.006 C 71.151 261.143,70.800 261.516,70.800 261.837 C 70.800 262.157,70.369 262.584,69.842 262.784 C 69.315 262.984,68.789 263.385,68.674 263.674 C 68.558 263.963,68.463 235.310,68.463 200.000 C 68.463 164.690,68.558 136.037,68.674 136.326 C 68.789 136.615,69.315 137.016,69.842 137.216 M145.614 213.489 C 145.292 213.618,127.712 231.045,106.546 252.216 L 68.063 290.708 69.032 292.133 C 69.564 292.916,70.000 293.747,70.000 293.979 C 70.000 294.210,70.190 294.400,70.421 294.400 C 70.653 294.400,71.505 294.850,72.314 295.400 L 73.786 296.400 199.709 296.400 L 325.632 296.400 326.916 295.508 C 329.467 293.736,330.400 292.673,330.400 291.542 C 330.400 290.218,253.792 213.200,252.475 213.200 C 252.074 213.200,250.201 214.775,248.315 216.700 C 236.413 228.846,231.106 233.584,226.048 236.584 C 225.691 236.795,224.923 237.282,224.340 237.666 C 223.757 238.050,222.820 238.480,222.257 238.622 C 221.693 238.763,221.033 239.119,220.789 239.414 C 220.545 239.708,219.772 240.072,219.072 240.223 C 218.373 240.374,217.170 240.814,216.400 241.201 C 215.630 241.588,214.208 242.036,213.241 242.197 C 212.273 242.358,210.833 242.785,210.041 243.145 C 207.922 244.108,190.390 244.117,188.600 243.156 C 187.940 242.801,186.618 242.391,185.663 242.245 C 184.708 242.099,183.230 241.624,182.379 241.189 C 181.528 240.755,180.489 240.400,180.070 240.400 C 179.651 240.400,178.879 240.066,178.354 239.658 C 177.829 239.250,176.739 238.701,175.932 238.438 C 175.125 238.174,174.248 237.698,173.983 237.380 C 173.718 237.061,173.352 236.800,173.169 236.800 C 172.985 236.800,172.153 236.356,171.318 235.814 C 167.592 233.394,166.529 232.443,156.315 222.400 C 147.199 213.436,146.727 213.043,145.614 213.489 M147.200 214.573 C 147.200 214.888,147.551 215.257,147.980 215.394 C 148.408 215.530,148.864 215.972,148.993 216.377 C 149.121 216.782,149.581 217.206,150.013 217.319 C 150.446 217.433,150.800 217.800,150.800 218.136 C 150.800 218.471,151.151 218.857,151.580 218.994 C 152.008 219.130,152.470 219.592,152.606 220.020 C 152.743 220.449,153.100 220.800,153.400 220.800 C 153.700 220.800,154.057 221.151,154.194 221.580 C 154.330 222.008,154.792 222.470,155.220 222.606 C 155.649 222.743,156.000 223.129,156.000 223.464 C 156.000 223.800,156.354 224.167,156.787 224.281 C 157.219 224.394,157.679 224.818,157.807 225.223 C 157.936 225.628,158.392 226.070,158.820 226.206 C 159.249 226.343,159.600 226.700,159.600 227.000 C 159.600 227.300,159.951 227.657,160.380 227.794 C 160.808 227.930,161.267 228.383,161.400 228.800 C 161.533 229.217,161.992 229.670,162.420 229.806 C 162.849 229.943,163.200 230.220,163.200 230.422 C 163.200 230.736,164.584 231.779,167.154 233.400 C 167.502 233.620,168.026 234.115,168.317 234.500 C 168.607 234.885,169.040 235.200,169.277 235.200 C 169.514 235.200,170.125 235.650,170.635 236.200 C 171.145 236.750,171.999 237.200,172.534 237.200 C 173.170 237.200,173.579 237.477,173.716 238.000 C 173.857 238.541,174.262 238.800,174.963 238.800 C 175.533 238.800,176.374 239.174,176.830 239.630 C 177.287 240.087,178.305 240.565,179.092 240.692 C 179.880 240.820,180.857 241.257,181.262 241.662 C 181.708 242.108,182.574 242.400,183.453 242.400 C 184.264 242.400,185.545 242.798,186.353 243.300 C 188.398 244.572,210.542 244.719,211.922 243.470 C 212.371 243.065,213.743 242.603,215.015 242.430 C 216.478 242.232,217.434 241.883,217.670 241.460 C 217.874 241.097,218.493 240.800,219.046 240.800 C 220.124 240.800,221.450 240.208,222.320 239.337 C 222.616 239.042,223.176 238.800,223.567 238.800 C 223.957 238.800,224.587 238.456,224.967 238.036 C 225.348 237.616,226.100 237.161,226.640 237.026 C 227.179 236.890,227.958 236.469,228.370 236.090 C 228.782 235.710,229.790 234.950,230.610 234.400 C 231.429 233.850,232.482 233.027,232.950 232.570 C 233.417 232.114,234.115 231.624,234.500 231.483 C 234.885 231.341,235.200 230.949,235.200 230.613 C 235.200 230.276,235.386 230.000,235.613 230.000 C 236.151 230.000,238.800 227.351,238.800 226.813 C 238.800 226.586,238.986 226.400,239.213 226.400 C 239.751 226.400,242.400 223.751,242.400 223.213 C 242.400 222.986,242.589 222.800,242.820 222.800 C 243.396 222.800,246.000 220.228,246.000 219.660 C 246.000 219.407,246.287 219.200,246.637 219.200 C 246.988 219.200,247.365 218.857,247.474 218.437 C 247.584 218.017,248.031 217.581,248.467 217.467 C 248.903 217.353,249.353 216.903,249.467 216.467 C 249.581 216.031,250.017 215.584,250.437 215.474 C 250.857 215.365,251.200 214.988,251.200 214.637 C 251.200 214.196,251.569 214.000,252.400 214.000 C 253.231 214.000,253.600 214.196,253.600 214.637 C 253.600 214.988,253.954 215.367,254.387 215.481 C 254.819 215.594,255.279 216.018,255.407 216.423 C 255.536 216.828,255.992 217.270,256.420 217.406 C 256.849 217.543,257.200 217.929,257.200 218.264 C 257.200 218.600,257.554 218.967,257.987 219.081 C 258.419 219.194,258.879 219.618,259.007 220.023 C 259.136 220.428,259.592 220.870,260.020 221.006 C 260.449 221.143,260.800 221.529,260.800 221.864 C 260.800 222.200,261.154 222.567,261.587 222.681 C 262.019 222.794,262.479 223.218,262.607 223.623 C 262.736 224.028,263.192 224.470,263.620 224.606 C 264.049 224.743,264.400 225.129,264.400 225.464 C 264.400 225.800,264.754 226.167,265.187 226.281 C 265.619 226.394,266.075 226.808,266.200 227.200 C 266.325 227.592,266.781 228.006,267.213 228.119 C 267.646 228.233,268.000 228.600,268.000 228.936 C 268.000 229.271,268.360 229.660,268.800 229.800 C 269.240 229.940,269.600 230.329,269.600 230.664 C 269.600 231.000,269.954 231.367,270.387 231.481 C 270.819 231.594,271.279 232.018,271.407 232.423 C 271.536 232.828,271.992 233.270,272.420 233.406 C 272.849 233.543,273.200 233.929,273.200 234.264 C 273.200 234.600,273.554 234.967,273.987 235.081 C 274.419 235.194,274.879 235.618,275.007 236.023 C 275.136 236.428,275.592 236.870,276.020 237.006 C 276.449 237.143,276.800 237.529,276.800 237.864 C 276.800 238.200,277.154 238.567,277.587 238.681 C 278.019 238.794,278.479 239.218,278.607 239.623 C 278.736 240.028,279.192 240.470,279.620 240.606 C 280.049 240.743,280.400 241.129,280.400 241.464 C 280.400 241.800,280.760 242.169,281.200 242.284 C 281.640 242.399,282.000 242.759,282.000 243.084 C 282.000 243.409,282.374 243.773,282.831 243.892 C 283.288 244.012,283.823 244.535,284.021 245.055 C 284.218 245.575,284.655 246.000,284.990 246.000 C 285.326 246.000,285.600 246.287,285.600 246.637 C 285.600 246.988,285.954 247.367,286.387 247.481 C 286.819 247.594,287.279 248.018,287.407 248.423 C 287.536 248.828,287.972 249.264,288.377 249.393 C 288.782 249.521,289.206 249.981,289.319 250.413 C 289.433 250.846,289.800 251.200,290.136 251.200 C 290.471 251.200,290.857 251.551,290.994 251.980 C 291.130 252.408,291.572 252.864,291.977 252.993 C 292.382 253.121,292.806 253.581,292.919 254.013 C 293.033 254.446,293.400 254.800,293.736 254.800 C 294.071 254.800,294.457 255.151,294.594 255.580 C 294.730 256.008,295.172 256.464,295.577 256.593 C 295.982 256.721,296.406 257.181,296.519 257.613 C 296.633 258.046,297.000 258.400,297.336 258.400 C 297.671 258.400,298.060 258.760,298.200 259.200 C 298.340 259.640,298.729 260.000,299.064 260.000 C 299.400 260.000,299.767 260.354,299.881 260.787 C 299.994 261.219,300.408 261.675,300.800 261.800 C 301.192 261.925,301.606 262.381,301.719 262.813 C 301.833 263.246,302.200 263.600,302.536 263.600 C 302.871 263.600,303.257 263.951,303.394 264.380 C 303.530 264.808,303.972 265.264,304.377 265.393 C 304.782 265.521,305.206 265.981,305.319 266.413 C 305.433 266.846,305.800 267.200,306.136 267.200 C 306.471 267.200,306.857 267.551,306.994 267.980 C 307.130 268.408,307.572 268.864,307.977 268.993 C 308.382 269.121,308.806 269.581,308.919 270.013 C 309.033 270.446,309.400 270.800,309.736 270.800 C 310.071 270.800,310.457 271.151,310.594 271.580 C 310.730 272.008,311.172 272.464,311.577 272.593 C 311.982 272.721,312.406 273.181,312.519 273.613 C 312.633 274.046,313.000 274.400,313.336 274.400 C 313.671 274.400,314.060 274.760,314.200 275.200 C 314.340 275.640,314.716 276.000,315.037 276.000 C 315.357 276.000,315.791 276.450,316.000 277.000 C 316.209 277.550,316.634 278.000,316.943 278.000 C 317.253 278.000,317.601 278.360,317.716 278.800 C 317.831 279.240,318.200 279.600,318.536 279.600 C 318.871 279.600,319.257 279.951,319.394 280.380 C 319.530 280.808,319.972 281.264,320.377 281.393 C 320.782 281.521,321.206 281.981,321.319 282.413 C 321.433 282.846,321.800 283.200,322.136 283.200 C 322.471 283.200,322.857 283.551,322.994 283.980 C 323.130 284.408,323.572 284.864,323.977 284.993 C 324.382 285.121,324.806 285.581,324.919 286.013 C 325.033 286.446,325.400 286.800,325.736 286.800 C 326.071 286.800,326.457 287.151,326.594 287.580 C 326.730 288.008,327.172 288.464,327.577 288.593 C 327.982 288.721,328.406 289.181,328.519 289.613 C 328.633 290.046,329.012 290.400,329.363 290.400 C 329.804 290.400,330.000 290.769,330.000 291.600 C 330.000 292.431,329.804 292.800,329.363 292.800 C 329.012 292.800,328.635 293.143,328.526 293.562 C 328.398 294.051,327.829 294.418,326.942 294.584 C 326.181 294.727,325.458 295.104,325.336 295.422 C 324.926 296.491,75.070 296.270,73.709 295.200 C 73.150 294.760,72.486 294.400,72.235 294.400 C 71.984 294.400,71.423 293.995,70.989 293.500 C 69.979 292.348,69.119 290.400,69.619 290.400 C 69.829 290.400,70.000 290.040,70.000 289.600 C 70.000 289.160,70.207 288.800,70.460 288.800 C 71.028 288.800,73.600 286.196,73.600 285.620 C 73.600 285.389,73.806 285.200,74.057 285.200 C 74.681 285.200,77.190 282.721,77.196 282.100 C 77.198 281.825,77.389 281.600,77.620 281.600 C 78.196 281.600,80.800 279.028,80.800 278.460 C 80.800 278.207,81.087 278.000,81.437 278.000 C 81.788 278.000,82.165 277.657,82.274 277.237 C 82.384 276.817,82.831 276.381,83.267 276.267 C 83.703 276.153,84.157 275.686,84.276 275.230 C 84.396 274.773,84.759 274.400,85.084 274.400 C 85.409 274.400,85.769 274.040,85.884 273.600 C 85.999 273.160,86.279 272.800,86.506 272.800 C 87.040 272.800,89.600 270.169,89.600 269.620 C 89.600 269.389,89.807 269.200,90.060 269.200 C 90.628 269.200,93.200 266.596,93.200 266.020 C 93.200 265.789,93.389 265.600,93.620 265.600 C 94.196 265.600,96.800 263.028,96.800 262.460 C 96.800 262.207,97.087 262.000,97.437 262.000 C 97.788 262.000,98.165 261.657,98.274 261.237 C 98.384 260.817,98.831 260.381,99.267 260.267 C 99.703 260.153,100.157 259.686,100.276 259.230 C 100.396 258.773,100.759 258.400,101.084 258.400 C 101.409 258.400,101.765 258.057,101.874 257.637 C 101.984 257.217,102.431 256.781,102.867 256.667 C 103.303 256.553,103.757 256.086,103.876 255.630 C 103.996 255.173,104.359 254.800,104.684 254.800 C 105.009 254.800,105.369 254.440,105.484 254.000 C 105.599 253.560,105.878 253.200,106.104 253.200 C 106.693 253.200,109.191 250.695,109.196 250.100 C 109.198 249.825,109.389 249.600,109.620 249.600 C 110.196 249.600,112.800 247.028,112.800 246.460 C 112.800 246.207,113.087 246.000,113.437 246.000 C 113.788 246.000,114.165 245.657,114.274 245.237 C 114.384 244.817,114.831 244.381,115.267 244.267 C 115.703 244.153,116.157 243.686,116.276 243.230 C 116.396 242.773,116.759 242.400,117.084 242.400 C 117.409 242.400,117.769 242.040,117.884 241.600 C 117.999 241.160,118.279 240.800,118.506 240.800 C 119.040 240.800,121.600 238.169,121.600 237.620 C 121.600 237.389,121.786 237.200,122.013 237.200 C 122.551 237.200,125.200 234.551,125.200 234.013 C 125.200 233.786,125.389 233.600,125.620 233.600 C 126.196 233.600,128.800 231.028,128.800 230.460 C 128.800 230.207,129.087 230.000,129.437 230.000 C 129.788 230.000,130.165 229.657,130.274 229.237 C 130.384 228.817,130.831 228.381,131.267 228.267 C 131.703 228.153,132.157 227.686,132.276 227.230 C 132.396 226.773,132.759 226.400,133.084 226.400 C 133.409 226.400,133.769 226.040,133.884 225.600 C 133.999 225.160,134.279 224.800,134.506 224.800 C 135.040 224.800,137.600 222.169,137.600 221.620 C 137.600 221.389,137.789 221.200,138.020 221.200 C 138.596 221.200,141.200 218.628,141.200 218.060 C 141.200 217.807,141.389 217.600,141.620 217.600 C 142.196 217.600,144.800 215.028,144.800 214.460 C 144.800 214.207,145.340 214.000,146.000 214.000 C 146.775 214.000,147.200 214.203,147.200 214.573 " stroke="none" fill="#e4dcf4" fill-rule="evenodd"></path><path id="path4" d="M72.046 86.861 C 70.641 87.064,68.716 87.583,67.768 88.015 C 66.820 88.447,65.775 88.800,65.446 88.800 C 65.116 88.800,64.735 88.982,64.597 89.205 C 64.460 89.427,63.394 90.219,62.228 90.965 C 56.220 94.808,52.009 101.524,51.231 108.505 C 50.650 113.716,50.633 287.889,51.214 292.952 C 51.630 296.586,54.174 302.784,55.915 304.407 C 56.292 304.758,57.050 305.575,57.600 306.223 C 59.976 309.020,66.111 313.193,67.856 313.198 C 68.107 313.199,69.097 313.556,70.056 313.991 C 72.441 315.073,327.329 315.242,330.200 314.164 C 331.080 313.833,332.520 313.325,333.400 313.035 C 338.295 311.418,345.211 305.181,346.831 300.920 C 347.064 300.305,347.494 299.531,347.784 299.201 C 348.075 298.870,348.443 297.808,348.602 296.841 C 348.760 295.873,349.140 294.484,349.445 293.754 C 350.260 291.803,350.278 109.439,349.463 107.487 C 349.167 106.779,348.802 105.540,348.651 104.733 C 347.583 99.033,340.311 90.812,334.369 88.587 C 333.506 88.264,332.035 87.685,331.100 87.300 C 329.170 86.505,77.473 86.079,72.046 86.861 M331.794 88.300 C 332.671 88.795,333.770 89.200,334.236 89.200 C 334.702 89.200,335.569 89.650,336.162 90.200 C 336.756 90.750,337.474 91.200,337.759 91.200 C 338.043 91.200,338.602 91.560,339.000 92.000 C 339.398 92.440,339.857 92.800,340.020 92.800 C 340.490 92.800,342.800 95.077,342.800 95.541 C 342.800 95.771,343.076 96.115,343.413 96.303 C 344.026 96.646,344.975 98.168,346.218 100.800 C 346.582 101.570,347.108 102.470,347.388 102.800 C 347.668 103.130,348.015 104.335,348.159 105.477 C 348.303 106.619,348.687 108.188,349.011 108.964 C 349.886 111.060,349.869 289.749,348.993 292.200 C 348.678 293.080,348.304 294.827,348.161 296.083 C 347.993 297.553,347.633 298.608,347.150 299.045 C 346.738 299.418,346.400 300.114,346.400 300.590 C 346.400 301.066,345.995 301.831,345.500 302.289 C 345.005 302.748,344.150 303.785,343.600 304.594 C 341.289 307.993,334.352 312.800,331.757 312.800 C 331.329 312.800,330.533 313.115,329.989 313.500 C 328.506 314.550,72.401 314.594,70.800 313.545 C 70.250 313.185,69.090 312.765,68.221 312.612 C 67.353 312.459,66.204 311.989,65.667 311.567 C 65.131 311.145,64.364 310.800,63.963 310.800 C 63.080 310.800,55.790 303.749,55.431 302.548 C 55.291 302.079,54.822 301.286,54.388 300.786 C 53.955 300.287,53.600 299.483,53.600 299.000 C 53.600 298.517,53.257 297.727,52.838 297.244 C 51.585 295.799,51.543 292.110,51.675 196.600 L 51.800 105.800 52.649 104.400 C 53.115 103.630,53.612 102.511,53.753 101.914 C 54.600 98.311,63.779 89.200,66.561 89.200 C 66.934 89.200,67.816 88.894,68.520 88.521 C 70.802 87.311,71.841 87.301,201.800 87.351 L 330.200 87.400 331.794 88.300 M71.031 103.976 C 68.998 105.591,67.200 107.936,67.200 108.971 C 67.200 109.853,72.735 116.000,73.530 116.000 C 73.759 116.000,74.060 116.360,74.200 116.800 C 74.340 117.240,74.607 117.600,74.793 117.600 C 74.980 117.600,75.733 118.234,76.466 119.009 C 77.853 120.474,78.802 121.421,82.810 125.332 C 84.125 126.615,85.200 127.830,85.200 128.032 C 85.200 128.234,85.362 128.400,85.560 128.400 C 85.758 128.400,101.588 144.015,120.737 163.100 C 179.275 221.441,178.615 220.800,180.159 220.800 C 180.496 220.800,180.957 221.145,181.183 221.567 C 181.409 221.990,182.122 222.451,182.769 222.593 C 183.416 222.735,184.155 223.105,184.413 223.415 C 184.670 223.725,185.537 224.085,186.340 224.215 C 187.143 224.344,188.610 224.836,189.600 225.308 C 192.077 226.488,207.572 226.635,209.312 225.494 C 209.883 225.121,211.195 224.625,212.229 224.393 C 213.263 224.162,214.559 223.618,215.109 223.186 C 215.658 222.754,216.416 222.400,216.793 222.400 C 217.169 222.400,217.887 222.045,218.386 221.612 C 218.886 221.178,219.617 220.722,220.011 220.597 C 220.404 220.472,220.827 220.106,220.950 219.785 C 221.074 219.463,221.486 219.200,221.865 219.200 C 223.262 219.200,332.124 109.826,331.798 108.750 C 331.124 106.521,330.264 105.322,328.461 104.100 L 326.544 102.800 199.527 102.800 L 72.510 102.800 71.031 103.976 M327.685 104.399 C 329.669 105.645,330.551 106.734,330.939 108.416 C 331.162 109.383,224.796 216.374,220.475 219.529 C 218.713 220.816,212.349 223.987,211.515 223.994 C 211.138 223.997,209.916 224.360,208.800 224.800 C 205.507 226.098,194.058 225.977,189.839 224.600 C 188.154 224.050,186.533 223.600,186.237 223.600 C 185.940 223.600,185.489 223.348,185.233 223.039 C 184.977 222.731,184.307 222.363,183.743 222.222 C 183.180 222.080,182.243 221.644,181.660 221.252 C 178.169 218.906,176.550 217.753,175.984 217.212 C 161.346 203.204,67.724 109.335,67.902 108.846 C 68.632 106.847,71.159 104.309,73.238 103.485 C 73.547 103.363,130.500 103.252,199.800 103.239 L 325.800 103.215 327.685 104.399 M297.503 165.903 C 271.437 191.969,264.400 199.216,264.400 199.997 C 264.400 201.048,329.395 266.553,330.919 267.037 C 332.897 267.666,332.800 271.120,332.800 200.031 C 332.800 131.225,332.837 132.800,331.223 132.800 C 330.883 132.800,315.709 147.696,297.503 165.903 M67.429 133.829 C 66.467 134.790,66.467 265.210,67.429 266.171 C 67.774 266.517,68.183 266.800,68.336 266.800 C 68.890 266.800,134.800 200.556,134.800 200.000 C 134.800 199.444,68.890 133.200,68.336 133.200 C 68.183 133.200,67.774 133.483,67.429 133.829 M332.000 200.000 C 332.000 236.520,331.898 266.400,331.774 266.400 C 330.862 266.400,326.181 261.864,297.500 233.185 C 274.132 209.818,265.200 200.641,265.200 200.000 C 265.200 199.359,274.131 190.185,297.500 166.820 C 327.070 137.256,330.785 133.649,331.700 133.612 C 331.865 133.605,332.000 163.480,332.000 200.000 M101.100 166.542 C 125.658 191.116,133.600 199.293,133.600 200.000 C 133.600 201.382,68.521 266.437,67.985 265.590 C 67.574 264.940,67.434 135.699,67.843 134.633 C 68.234 133.613,67.256 132.675,101.100 166.542 M139.347 217.964 C 135.856 221.488,132.768 224.603,132.484 224.886 C 132.201 225.169,120.546 236.792,106.584 250.715 C 92.623 264.638,81.200 276.203,81.200 276.415 C 81.200 276.627,81.006 276.800,80.768 276.800 C 79.884 276.800,67.200 290.071,67.200 290.995 C 67.200 292.061,68.975 294.391,71.031 296.024 L 72.510 297.200 199.527 297.200 L 326.544 297.200 328.461 295.900 C 330.262 294.679,331.124 293.479,331.796 291.258 C 332.140 290.121,254.089 211.605,252.611 211.602 C 252.119 211.601,248.510 214.876,243.011 220.312 C 238.165 225.103,233.210 229.869,232.000 230.902 C 230.790 231.936,229.485 233.056,229.100 233.391 C 228.715 233.726,228.234 234.000,228.031 234.000 C 227.828 234.000,227.153 234.412,226.531 234.916 C 225.909 235.419,224.950 236.048,224.400 236.313 C 223.850 236.578,223.130 236.957,222.800 237.157 C 221.186 238.132,217.850 239.600,217.248 239.600 C 216.874 239.600,215.856 239.967,214.985 240.416 C 214.113 240.865,212.140 241.402,210.600 241.610 C 209.060 241.818,207.080 242.253,206.200 242.577 C 203.979 243.393,195.059 243.414,192.687 242.609 C 191.729 242.284,189.654 241.835,188.075 241.611 C 186.495 241.387,184.530 240.843,183.708 240.402 C 182.885 239.961,181.788 239.600,181.269 239.600 C 180.750 239.600,179.869 239.240,179.309 238.800 C 178.750 238.360,177.991 238.000,177.624 238.000 C 177.256 238.000,176.345 237.550,175.600 237.000 C 174.855 236.450,173.914 236.000,173.510 236.000 C 173.106 236.000,172.680 235.754,172.565 235.453 C 172.359 234.915,168.763 232.400,168.201 232.400 C 168.043 232.400,163.244 227.765,157.537 222.100 C 151.830 216.435,146.830 211.745,146.427 211.678 C 145.928 211.596,143.671 213.599,139.347 217.964 M156.272 221.700 C 161.481 226.815,166.134 231.371,166.614 231.824 C 170.065 235.090,183.464 242.000,186.344 242.000 C 186.744 242.000,188.480 242.360,190.200 242.800 C 194.253 243.837,204.155 243.935,207.816 242.975 C 209.127 242.631,211.100 242.178,212.200 241.969 C 221.492 240.199,229.456 234.853,243.055 221.254 C 249.294 215.015,251.757 212.800,252.456 212.800 C 253.177 212.800,262.630 222.030,292.297 251.700 L 331.193 290.600 330.797 292.030 C 330.371 293.570,329.436 294.571,327.150 295.937 L 325.700 296.804 199.350 296.702 L 73.000 296.600 71.431 295.491 C 69.831 294.360,68.175 292.272,67.934 291.081 C 67.846 290.646,80.956 277.235,106.200 251.936 C 141.375 216.684,145.584 212.559,146.501 212.439 C 146.666 212.418,151.063 216.585,156.272 221.700 " stroke="none" fill="#847ccc" fill-rule="evenodd"></path></g></svg>