<?xml version="1.0" standalone="no"?>
<!DOCTYPE svg PUBLIC "-//W3C//DTD SVG 20010904//EN"
 "http://www.w3.org/TR/2001/REC-SVG-20010904/DTD/svg10.dtd">
<svg version="1.0" xmlns="http://www.w3.org/2000/svg"
 width="225.000000pt" height="225.000000pt" viewBox="0 0 225.000000 225.000000"
 preserveAspectRatio="xMidYMid meet">

<g transform="translate(0.000000,225.000000) scale(0.100000,-0.100000)"
fill="#000000" stroke="none">
<path d="M579 2154 c-7 -9 -15 -34 -18 -56 -6 -37 -9 -41 -56 -57 -28 -10 -60
-24 -72 -32 -20 -12 -25 -11 -51 14 -15 15 -37 27 -47 27 -26 0 -135 -109
-135 -134 0 -11 12 -32 26 -47 l27 -28 -23 -48 c-13 -26 -26 -59 -30 -73 -5
-20 -14 -26 -47 -31 -66 -8 -73 -20 -73 -114 0 -94 7 -105 72 -114 37 -6 41
-9 57 -56 10 -28 24 -60 32 -72 12 -20 11 -25 -14 -51 -15 -15 -27 -37 -27
-48 0 -25 109 -134 135 -134 10 0 32 12 47 27 26 25 31 26 51 14 12 -8 44 -22
72 -32 47 -16 50 -20 56 -57 9 -65 20 -72 114 -72 94 0 105 7 114 72 6 37 9
41 56 57 28 10 60 24 72 32 20 12 25 11 51 -14 15 -15 37 -27 47 -27 26 0 135
109 135 134 0 11 -12 33 -27 48 -25 26 -26 31 -14 51 8 12 22 44 32 72 16 47
20 50 57 56 65 9 72 20 72 114 0 94 -7 105 -72 114 -37 6 -41 9 -57 56 -10 28
-24 60 -32 72 -12 20 -11 25 14 51 15 15 27 37 27 47 0 26 -109 135 -134 135
-11 0 -33 -12 -48 -27 -26 -25 -31 -26 -51 -14 -12 8 -44 22 -72 32 -47 16
-50 20 -56 57 -9 65 -20 72 -114 72 -63 0 -86 -4 -96 -16z m181 -68 l5 -48 60
-23 c33 -13 75 -29 92 -36 30 -12 34 -11 61 14 15 15 32 27 37 27 13 0 105
-92 105 -104 0 -5 -12 -23 -27 -38 -25 -27 -26 -31 -14 -61 7 -17 23 -59 36
-92 20 -52 26 -60 51 -63 77 -7 75 -5 72 -90 l-3 -77 -49 -5 -48 -5 -23 -60
c-13 -33 -29 -75 -36 -92 -12 -30 -11 -34 14 -61 15 -15 27 -32 27 -37 0 -13
-92 -105 -104 -105 -5 0 -23 12 -38 27 -27 25 -31 26 -61 14 -17 -7 -59 -23
-92 -36 l-60 -23 -5 -48 -5 -49 -77 -3 c-85 -3 -83 -5 -90 72 -3 25 -11 31
-63 51 -33 13 -75 29 -92 36 -30 12 -34 11 -61 -14 -15 -15 -32 -27 -37 -27
-13 0 -105 92 -105 104 0 5 12 23 27 38 25 27 26 31 14 61 -7 17 -23 59 -36
92 -20 52 -26 60 -51 63 -77 7 -75 5 -72 90 l3 77 49 5 48 5 23 60 c13 33 29
75 36 92 12 30 11 34 -14 61 -15 15 -27 32 -27 37 0 13 92 105 104 105 5 0 23
-12 38 -27 27 -25 31 -26 61 -14 17 7 59 23 92 36 52 20 60 26 63 51 7 77 5
75 90 72 l77 -3 5 -49z"/>
<path d="M586 1834 c-70 -22 -149 -103 -170 -174 -20 -67 -20 -103 0 -170 30
-103 149 -190 259 -190 142 0 275 133 275 275 0 110 -87 229 -190 259 -65 19
-110 19 -174 0z m162 -29 c113 -34 188 -158 164 -274 -41 -193 -268 -264 -406
-125 -44 44 -76 114 -76 169 0 93 80 202 168 229 61 19 88 19 150 1z"/>
<path d="M1552 1478 c-7 -7 -12 -27 -12 -45 0 -23 -6 -35 -17 -40 -10 -3 -41
-16 -70 -28 l-51 -23 -23 24 c-35 37 -60 30 -118 -30 -28 -30 -51 -60 -51 -67
0 -7 12 -25 27 -41 26 -27 26 -28 10 -60 -9 -18 -23 -50 -31 -70 -13 -33 -19
-38 -48 -38 -49 0 -58 -14 -58 -96 0 -83 13 -104 64 -104 30 0 34 -4 59 -67
l26 -68 -24 -25 c-14 -15 -25 -32 -25 -39 0 -7 23 -37 51 -67 56 -59 84 -67
114 -34 23 25 27 25 100 -4 55 -23 60 -28 63 -58 6 -52 16 -58 102 -58 86 0
96 6 102 58 3 30 8 35 63 58 73 29 77 29 100 4 30 -33 58 -25 114 34 28 30 51
59 51 65 0 5 -12 23 -26 40 l-26 31 20 43 c11 23 23 52 26 65 6 17 15 22 40
22 51 0 66 24 66 107 0 78 -7 90 -59 95 -31 3 -36 8 -63 70 l-30 67 26 31 c14
18 26 36 26 42 0 19 -106 118 -127 118 -11 0 -30 -11 -42 -24 l-23 -24 -51 23
c-29 12 -60 25 -69 28 -12 5 -18 17 -18 40 0 49 -14 57 -100 57 -46 0 -81 -5
-88 -12z m185 -326 c134 -69 154 -254 37 -350 -140 -116 -344 -19 -344 163 0
160 164 260 307 187z"/>
<path d="M738 938 c-9 -7 -18 -26 -20 -42 -3 -24 -11 -31 -56 -48 -49 -18 -55
-19 -71 -4 -29 26 -56 19 -100 -29 -22 -24 -41 -49 -41 -53 0 -5 9 -21 20 -34
19 -25 19 -26 1 -74 -16 -41 -24 -50 -47 -52 -46 -6 -54 -19 -54 -86 0 -68 10
-86 50 -86 22 0 30 -8 48 -51 21 -52 21 -52 2 -79 -11 -16 -20 -31 -20 -34 0
-4 19 -27 41 -51 44 -48 71 -55 101 -28 16 15 21 15 55 0 21 -8 46 -18 56 -21
11 -3 17 -15 17 -34 0 -41 17 -52 79 -52 68 0 81 8 90 50 5 27 14 35 56 51 43
16 51 17 65 4 28 -26 63 -18 103 23 39 40 47 72 22 92 -20 16 -19 28 5 84 18
40 25 46 50 46 37 0 50 23 50 89 0 56 -17 81 -55 81 -19 0 -28 10 -45 46 -24
56 -25 68 -5 84 25 20 17 44 -28 88 -47 46 -57 49 -95 26 -25 -14 -31 -14 -74
6 -38 16 -48 26 -48 45 0 38 -25 55 -84 55 -29 0 -60 -6 -68 -12z m124 -59 c2
-18 10 -35 18 -39 8 -4 37 -17 64 -29 l49 -22 30 21 29 22 36 -36 36 -35 -23
-25 -23 -25 23 -58 c30 -76 36 -83 70 -83 28 0 29 -1 29 -54 0 -54 0 -55 -31
-58 -18 -2 -35 -10 -39 -18 -4 -8 -18 -39 -31 -68 l-22 -52 23 -25 24 -26 -36
-36 -36 -36 -27 21 c-28 22 -27 23 -117 -16 -41 -18 -47 -25 -50 -54 -3 -33
-4 -33 -53 -33 -49 0 -50 1 -55 34 -5 31 -10 36 -73 61 l-67 28 -26 -21 -26
-20 -36 36 c-34 34 -35 37 -19 55 22 24 21 36 -6 107 -21 55 -26 60 -58 65
-34 5 -34 6 -34 55 0 49 0 50 33 53 28 3 36 9 48 40 8 20 19 45 24 54 15 27
12 59 -7 80 -16 18 -15 21 20 55 l36 37 25 -23 25 -24 68 30 c61 27 68 34 71
62 3 30 4 31 57 31 53 0 54 0 57 -31z"/>
<path d="M730 704 c-76 -33 -130 -111 -130 -189 0 -147 153 -247 285 -186 82
37 134 130 121 214 -21 131 -160 211 -276 161z m169 -52 c98 -72 95 -213 -6
-282 -27 -18 -49 -24 -88 -24 -154 0 -229 180 -120 288 56 56 152 64 214 18z"/>
</g>
</svg>
